G75*
%MOIN*%
%OFA0B0*%
%FSLAX25Y25*%
%IPPOS*%
%LPD*%
%AMOC8*
5,1,8,0,0,1.08239X$1,22.5*
%
%ADD10C,0.00600*%
%ADD11C,0.00500*%
%ADD12R,0.03400X0.02400*%
%ADD13C,0.01000*%
%ADD14C,0.00200*%
%ADD15R,0.08500X0.02000*%
D10*
X0053500Y0111000D02*
X0051000Y0113500D01*
X0051000Y0118500D01*
X0053500Y0121000D01*
X0051000Y0123500D01*
X0051000Y0128500D01*
X0053500Y0131000D01*
X0051000Y0133500D01*
X0051000Y0138500D01*
X0053500Y0141000D01*
X0051000Y0143500D01*
X0051000Y0148500D01*
X0053500Y0151000D01*
X0051000Y0153500D01*
X0051000Y0158500D01*
X0053500Y0161000D01*
X0051000Y0163500D01*
X0051000Y0168500D01*
X0053500Y0171000D01*
X0051000Y0173500D01*
X0051000Y0178500D01*
X0053500Y0181000D01*
X0051000Y0183500D01*
X0051000Y0188500D01*
X0053500Y0191000D01*
X0058500Y0191000D01*
X0061000Y0188500D01*
X0061000Y0183500D01*
X0058500Y0181000D01*
X0061000Y0178500D01*
X0061000Y0173500D01*
X0058500Y0171000D01*
X0061000Y0168500D01*
X0061000Y0163500D01*
X0058500Y0161000D01*
X0061000Y0158500D01*
X0061000Y0153500D01*
X0058500Y0151000D01*
X0061000Y0148500D01*
X0061000Y0143500D01*
X0058500Y0141000D01*
X0061000Y0138500D01*
X0061000Y0133500D01*
X0058500Y0131000D01*
X0061000Y0128500D01*
X0061000Y0123500D01*
X0058500Y0121000D01*
X0061000Y0118500D01*
X0061000Y0113500D01*
X0058500Y0111000D01*
X0053500Y0111000D01*
X0136000Y0122000D02*
X0136152Y0121998D01*
X0136303Y0121992D01*
X0136454Y0121983D01*
X0136606Y0121969D01*
X0136756Y0121952D01*
X0136906Y0121931D01*
X0137056Y0121906D01*
X0137205Y0121878D01*
X0137353Y0121845D01*
X0137500Y0121809D01*
X0137647Y0121770D01*
X0137792Y0121726D01*
X0137936Y0121679D01*
X0138079Y0121628D01*
X0138220Y0121574D01*
X0138361Y0121516D01*
X0138499Y0121455D01*
X0138636Y0121390D01*
X0138772Y0121321D01*
X0138905Y0121250D01*
X0139037Y0121175D01*
X0139167Y0121096D01*
X0139294Y0121015D01*
X0139420Y0120930D01*
X0139544Y0120842D01*
X0139665Y0120751D01*
X0139784Y0120657D01*
X0139900Y0120559D01*
X0140014Y0120459D01*
X0140126Y0120357D01*
X0140234Y0120251D01*
X0140340Y0120143D01*
X0140444Y0120032D01*
X0140544Y0119918D01*
X0140642Y0119802D01*
X0140736Y0119683D01*
X0136000Y0110000D02*
X0135846Y0110002D01*
X0135692Y0110008D01*
X0135538Y0110018D01*
X0135384Y0110032D01*
X0135231Y0110049D01*
X0135079Y0110071D01*
X0134927Y0110097D01*
X0134775Y0110126D01*
X0134625Y0110160D01*
X0134475Y0110197D01*
X0134327Y0110238D01*
X0134179Y0110283D01*
X0134033Y0110332D01*
X0133888Y0110384D01*
X0133745Y0110440D01*
X0133602Y0110500D01*
X0133462Y0110563D01*
X0133323Y0110630D01*
X0133186Y0110701D01*
X0133051Y0110775D01*
X0132918Y0110852D01*
X0132786Y0110933D01*
X0132657Y0111017D01*
X0132530Y0111105D01*
X0132406Y0111196D01*
X0132284Y0111289D01*
X0132164Y0111387D01*
X0132047Y0111487D01*
X0131932Y0111590D01*
X0131820Y0111696D01*
X0131711Y0111804D01*
X0131605Y0111916D01*
X0131501Y0112030D01*
X0131401Y0112147D01*
X0131303Y0112266D01*
X0131209Y0112388D01*
X0131118Y0112513D01*
X0136000Y0110000D02*
X0136150Y0110002D01*
X0136301Y0110008D01*
X0136451Y0110017D01*
X0136600Y0110030D01*
X0136750Y0110047D01*
X0136899Y0110068D01*
X0137047Y0110092D01*
X0137195Y0110120D01*
X0137342Y0110152D01*
X0137488Y0110187D01*
X0137633Y0110227D01*
X0137777Y0110269D01*
X0137920Y0110316D01*
X0138062Y0110366D01*
X0138203Y0110419D01*
X0138342Y0110476D01*
X0138480Y0110536D01*
X0138616Y0110600D01*
X0138750Y0110667D01*
X0138883Y0110738D01*
X0139014Y0110812D01*
X0139143Y0110889D01*
X0139270Y0110970D01*
X0139395Y0111053D01*
X0139518Y0111140D01*
X0139639Y0111229D01*
X0139757Y0111322D01*
X0139873Y0111418D01*
X0139987Y0111516D01*
X0140098Y0111617D01*
X0140207Y0111722D01*
X0140312Y0111828D01*
X0140416Y0111938D01*
X0140516Y0112050D01*
X0140614Y0112164D01*
X0140708Y0112281D01*
X0140800Y0112400D01*
X0136000Y0122000D02*
X0135848Y0121998D01*
X0135697Y0121992D01*
X0135546Y0121983D01*
X0135394Y0121969D01*
X0135244Y0121952D01*
X0135094Y0121931D01*
X0134944Y0121906D01*
X0134795Y0121878D01*
X0134647Y0121845D01*
X0134500Y0121809D01*
X0134353Y0121770D01*
X0134208Y0121726D01*
X0134064Y0121679D01*
X0133921Y0121628D01*
X0133780Y0121574D01*
X0133639Y0121516D01*
X0133501Y0121455D01*
X0133364Y0121390D01*
X0133228Y0121321D01*
X0133095Y0121250D01*
X0132963Y0121175D01*
X0132833Y0121096D01*
X0132706Y0121015D01*
X0132580Y0120930D01*
X0132456Y0120842D01*
X0132335Y0120751D01*
X0132216Y0120657D01*
X0132100Y0120559D01*
X0131986Y0120459D01*
X0131874Y0120357D01*
X0131766Y0120251D01*
X0131660Y0120143D01*
X0131556Y0120032D01*
X0131456Y0119918D01*
X0131358Y0119802D01*
X0131264Y0119683D01*
X0176000Y0122000D02*
X0176154Y0121998D01*
X0176308Y0121992D01*
X0176462Y0121982D01*
X0176616Y0121968D01*
X0176769Y0121951D01*
X0176921Y0121929D01*
X0177073Y0121903D01*
X0177225Y0121874D01*
X0177375Y0121840D01*
X0177525Y0121803D01*
X0177673Y0121762D01*
X0177821Y0121717D01*
X0177967Y0121668D01*
X0178112Y0121616D01*
X0178255Y0121560D01*
X0178398Y0121500D01*
X0178538Y0121437D01*
X0178677Y0121370D01*
X0178814Y0121299D01*
X0178949Y0121225D01*
X0179082Y0121148D01*
X0179214Y0121067D01*
X0179343Y0120983D01*
X0179470Y0120895D01*
X0179594Y0120804D01*
X0179716Y0120711D01*
X0179836Y0120613D01*
X0179953Y0120513D01*
X0180068Y0120410D01*
X0180180Y0120304D01*
X0180289Y0120196D01*
X0180395Y0120084D01*
X0180499Y0119970D01*
X0180599Y0119853D01*
X0180697Y0119734D01*
X0180791Y0119612D01*
X0180882Y0119487D01*
X0176000Y0110000D02*
X0175848Y0110002D01*
X0175697Y0110008D01*
X0175546Y0110017D01*
X0175394Y0110031D01*
X0175244Y0110048D01*
X0175094Y0110069D01*
X0174944Y0110094D01*
X0174795Y0110122D01*
X0174647Y0110155D01*
X0174500Y0110191D01*
X0174353Y0110230D01*
X0174208Y0110274D01*
X0174064Y0110321D01*
X0173921Y0110372D01*
X0173780Y0110426D01*
X0173639Y0110484D01*
X0173501Y0110545D01*
X0173364Y0110610D01*
X0173228Y0110679D01*
X0173095Y0110750D01*
X0172963Y0110825D01*
X0172833Y0110904D01*
X0172706Y0110985D01*
X0172580Y0111070D01*
X0172456Y0111158D01*
X0172335Y0111249D01*
X0172216Y0111343D01*
X0172100Y0111441D01*
X0171986Y0111541D01*
X0171874Y0111643D01*
X0171766Y0111749D01*
X0171660Y0111857D01*
X0171556Y0111968D01*
X0171456Y0112082D01*
X0171358Y0112198D01*
X0171264Y0112317D01*
X0176000Y0110000D02*
X0176152Y0110002D01*
X0176303Y0110008D01*
X0176454Y0110017D01*
X0176606Y0110031D01*
X0176756Y0110048D01*
X0176906Y0110069D01*
X0177056Y0110094D01*
X0177205Y0110122D01*
X0177353Y0110155D01*
X0177500Y0110191D01*
X0177647Y0110230D01*
X0177792Y0110274D01*
X0177936Y0110321D01*
X0178079Y0110372D01*
X0178220Y0110426D01*
X0178361Y0110484D01*
X0178499Y0110545D01*
X0178636Y0110610D01*
X0178772Y0110679D01*
X0178905Y0110750D01*
X0179037Y0110825D01*
X0179167Y0110904D01*
X0179294Y0110985D01*
X0179420Y0111070D01*
X0179544Y0111158D01*
X0179665Y0111249D01*
X0179784Y0111343D01*
X0179900Y0111441D01*
X0180014Y0111541D01*
X0180126Y0111643D01*
X0180234Y0111749D01*
X0180340Y0111857D01*
X0180444Y0111968D01*
X0180544Y0112082D01*
X0180642Y0112198D01*
X0180736Y0112317D01*
X0176000Y0122000D02*
X0175850Y0121998D01*
X0175699Y0121992D01*
X0175549Y0121983D01*
X0175400Y0121970D01*
X0175250Y0121953D01*
X0175101Y0121932D01*
X0174953Y0121908D01*
X0174805Y0121880D01*
X0174658Y0121848D01*
X0174512Y0121813D01*
X0174367Y0121773D01*
X0174223Y0121731D01*
X0174080Y0121684D01*
X0173938Y0121634D01*
X0173797Y0121581D01*
X0173658Y0121524D01*
X0173520Y0121464D01*
X0173384Y0121400D01*
X0173250Y0121333D01*
X0173117Y0121262D01*
X0172986Y0121188D01*
X0172857Y0121111D01*
X0172730Y0121030D01*
X0172605Y0120947D01*
X0172482Y0120860D01*
X0172361Y0120771D01*
X0172243Y0120678D01*
X0172127Y0120582D01*
X0172013Y0120484D01*
X0171902Y0120383D01*
X0171793Y0120278D01*
X0171688Y0120172D01*
X0171584Y0120062D01*
X0171484Y0119950D01*
X0171386Y0119836D01*
X0171292Y0119719D01*
X0171200Y0119600D01*
X0180882Y0154487D02*
X0180791Y0154612D01*
X0180697Y0154734D01*
X0180599Y0154853D01*
X0180499Y0154970D01*
X0180395Y0155084D01*
X0180289Y0155196D01*
X0180180Y0155304D01*
X0180068Y0155410D01*
X0179953Y0155513D01*
X0179836Y0155613D01*
X0179716Y0155711D01*
X0179594Y0155804D01*
X0179470Y0155895D01*
X0179343Y0155983D01*
X0179214Y0156067D01*
X0179082Y0156148D01*
X0178949Y0156225D01*
X0178814Y0156299D01*
X0178677Y0156370D01*
X0178538Y0156437D01*
X0178398Y0156500D01*
X0178255Y0156560D01*
X0178112Y0156616D01*
X0177967Y0156668D01*
X0177821Y0156717D01*
X0177673Y0156762D01*
X0177525Y0156803D01*
X0177375Y0156840D01*
X0177225Y0156874D01*
X0177073Y0156903D01*
X0176921Y0156929D01*
X0176769Y0156951D01*
X0176616Y0156968D01*
X0176462Y0156982D01*
X0176308Y0156992D01*
X0176154Y0156998D01*
X0176000Y0157000D01*
X0171264Y0147317D02*
X0171358Y0147198D01*
X0171456Y0147082D01*
X0171556Y0146968D01*
X0171660Y0146857D01*
X0171766Y0146749D01*
X0171874Y0146643D01*
X0171986Y0146541D01*
X0172100Y0146441D01*
X0172216Y0146343D01*
X0172335Y0146249D01*
X0172456Y0146158D01*
X0172580Y0146070D01*
X0172706Y0145985D01*
X0172833Y0145904D01*
X0172963Y0145825D01*
X0173095Y0145750D01*
X0173228Y0145679D01*
X0173364Y0145610D01*
X0173501Y0145545D01*
X0173639Y0145484D01*
X0173780Y0145426D01*
X0173921Y0145372D01*
X0174064Y0145321D01*
X0174208Y0145274D01*
X0174353Y0145230D01*
X0174500Y0145191D01*
X0174647Y0145155D01*
X0174795Y0145122D01*
X0174944Y0145094D01*
X0175094Y0145069D01*
X0175244Y0145048D01*
X0175394Y0145031D01*
X0175546Y0145017D01*
X0175697Y0145008D01*
X0175848Y0145002D01*
X0176000Y0145000D01*
X0171200Y0154600D02*
X0171292Y0154719D01*
X0171386Y0154836D01*
X0171484Y0154950D01*
X0171584Y0155062D01*
X0171688Y0155172D01*
X0171793Y0155278D01*
X0171902Y0155383D01*
X0172013Y0155484D01*
X0172127Y0155582D01*
X0172243Y0155678D01*
X0172361Y0155771D01*
X0172482Y0155860D01*
X0172605Y0155947D01*
X0172730Y0156030D01*
X0172857Y0156111D01*
X0172986Y0156188D01*
X0173117Y0156262D01*
X0173250Y0156333D01*
X0173384Y0156400D01*
X0173520Y0156464D01*
X0173658Y0156524D01*
X0173797Y0156581D01*
X0173938Y0156634D01*
X0174080Y0156684D01*
X0174223Y0156731D01*
X0174367Y0156773D01*
X0174512Y0156813D01*
X0174658Y0156848D01*
X0174805Y0156880D01*
X0174953Y0156908D01*
X0175101Y0156932D01*
X0175250Y0156953D01*
X0175400Y0156970D01*
X0175549Y0156983D01*
X0175699Y0156992D01*
X0175850Y0156998D01*
X0176000Y0157000D01*
X0180736Y0147317D02*
X0180642Y0147198D01*
X0180544Y0147082D01*
X0180444Y0146968D01*
X0180340Y0146857D01*
X0180234Y0146749D01*
X0180126Y0146643D01*
X0180014Y0146541D01*
X0179900Y0146441D01*
X0179784Y0146343D01*
X0179665Y0146249D01*
X0179544Y0146158D01*
X0179420Y0146070D01*
X0179294Y0145985D01*
X0179167Y0145904D01*
X0179037Y0145825D01*
X0178905Y0145750D01*
X0178772Y0145679D01*
X0178636Y0145610D01*
X0178499Y0145545D01*
X0178361Y0145484D01*
X0178220Y0145426D01*
X0178079Y0145372D01*
X0177936Y0145321D01*
X0177792Y0145274D01*
X0177647Y0145230D01*
X0177500Y0145191D01*
X0177353Y0145155D01*
X0177205Y0145122D01*
X0177056Y0145094D01*
X0176906Y0145069D01*
X0176756Y0145048D01*
X0176606Y0145031D01*
X0176454Y0145017D01*
X0176303Y0145008D01*
X0176152Y0145002D01*
X0176000Y0145000D01*
X0136000Y0145000D02*
X0135846Y0145002D01*
X0135692Y0145008D01*
X0135538Y0145018D01*
X0135384Y0145032D01*
X0135231Y0145049D01*
X0135079Y0145071D01*
X0134927Y0145097D01*
X0134775Y0145126D01*
X0134625Y0145160D01*
X0134475Y0145197D01*
X0134327Y0145238D01*
X0134179Y0145283D01*
X0134033Y0145332D01*
X0133888Y0145384D01*
X0133745Y0145440D01*
X0133602Y0145500D01*
X0133462Y0145563D01*
X0133323Y0145630D01*
X0133186Y0145701D01*
X0133051Y0145775D01*
X0132918Y0145852D01*
X0132786Y0145933D01*
X0132657Y0146017D01*
X0132530Y0146105D01*
X0132406Y0146196D01*
X0132284Y0146289D01*
X0132164Y0146387D01*
X0132047Y0146487D01*
X0131932Y0146590D01*
X0131820Y0146696D01*
X0131711Y0146804D01*
X0131605Y0146916D01*
X0131501Y0147030D01*
X0131401Y0147147D01*
X0131303Y0147266D01*
X0131209Y0147388D01*
X0131118Y0147513D01*
X0136000Y0157000D02*
X0136152Y0156998D01*
X0136303Y0156992D01*
X0136454Y0156983D01*
X0136606Y0156969D01*
X0136756Y0156952D01*
X0136906Y0156931D01*
X0137056Y0156906D01*
X0137205Y0156878D01*
X0137353Y0156845D01*
X0137500Y0156809D01*
X0137647Y0156770D01*
X0137792Y0156726D01*
X0137936Y0156679D01*
X0138079Y0156628D01*
X0138220Y0156574D01*
X0138361Y0156516D01*
X0138499Y0156455D01*
X0138636Y0156390D01*
X0138772Y0156321D01*
X0138905Y0156250D01*
X0139037Y0156175D01*
X0139167Y0156096D01*
X0139294Y0156015D01*
X0139420Y0155930D01*
X0139544Y0155842D01*
X0139665Y0155751D01*
X0139784Y0155657D01*
X0139900Y0155559D01*
X0140014Y0155459D01*
X0140126Y0155357D01*
X0140234Y0155251D01*
X0140340Y0155143D01*
X0140444Y0155032D01*
X0140544Y0154918D01*
X0140642Y0154802D01*
X0140736Y0154683D01*
X0136000Y0157000D02*
X0135848Y0156998D01*
X0135697Y0156992D01*
X0135546Y0156983D01*
X0135394Y0156969D01*
X0135244Y0156952D01*
X0135094Y0156931D01*
X0134944Y0156906D01*
X0134795Y0156878D01*
X0134647Y0156845D01*
X0134500Y0156809D01*
X0134353Y0156770D01*
X0134208Y0156726D01*
X0134064Y0156679D01*
X0133921Y0156628D01*
X0133780Y0156574D01*
X0133639Y0156516D01*
X0133501Y0156455D01*
X0133364Y0156390D01*
X0133228Y0156321D01*
X0133095Y0156250D01*
X0132963Y0156175D01*
X0132833Y0156096D01*
X0132706Y0156015D01*
X0132580Y0155930D01*
X0132456Y0155842D01*
X0132335Y0155751D01*
X0132216Y0155657D01*
X0132100Y0155559D01*
X0131986Y0155459D01*
X0131874Y0155357D01*
X0131766Y0155251D01*
X0131660Y0155143D01*
X0131556Y0155032D01*
X0131456Y0154918D01*
X0131358Y0154802D01*
X0131264Y0154683D01*
X0136000Y0145000D02*
X0136150Y0145002D01*
X0136301Y0145008D01*
X0136451Y0145017D01*
X0136600Y0145030D01*
X0136750Y0145047D01*
X0136899Y0145068D01*
X0137047Y0145092D01*
X0137195Y0145120D01*
X0137342Y0145152D01*
X0137488Y0145187D01*
X0137633Y0145227D01*
X0137777Y0145269D01*
X0137920Y0145316D01*
X0138062Y0145366D01*
X0138203Y0145419D01*
X0138342Y0145476D01*
X0138480Y0145536D01*
X0138616Y0145600D01*
X0138750Y0145667D01*
X0138883Y0145738D01*
X0139014Y0145812D01*
X0139143Y0145889D01*
X0139270Y0145970D01*
X0139395Y0146053D01*
X0139518Y0146140D01*
X0139639Y0146229D01*
X0139757Y0146322D01*
X0139873Y0146418D01*
X0139987Y0146516D01*
X0140098Y0146617D01*
X0140207Y0146722D01*
X0140312Y0146828D01*
X0140416Y0146938D01*
X0140516Y0147050D01*
X0140614Y0147164D01*
X0140708Y0147281D01*
X0140800Y0147400D01*
X0131264Y0184683D02*
X0131358Y0184802D01*
X0131456Y0184918D01*
X0131556Y0185032D01*
X0131660Y0185143D01*
X0131766Y0185251D01*
X0131874Y0185357D01*
X0131986Y0185459D01*
X0132100Y0185559D01*
X0132216Y0185657D01*
X0132335Y0185751D01*
X0132456Y0185842D01*
X0132580Y0185930D01*
X0132706Y0186015D01*
X0132833Y0186096D01*
X0132963Y0186175D01*
X0133095Y0186250D01*
X0133228Y0186321D01*
X0133364Y0186390D01*
X0133501Y0186455D01*
X0133639Y0186516D01*
X0133780Y0186574D01*
X0133921Y0186628D01*
X0134064Y0186679D01*
X0134208Y0186726D01*
X0134353Y0186770D01*
X0134500Y0186809D01*
X0134647Y0186845D01*
X0134795Y0186878D01*
X0134944Y0186906D01*
X0135094Y0186931D01*
X0135244Y0186952D01*
X0135394Y0186969D01*
X0135546Y0186983D01*
X0135697Y0186992D01*
X0135848Y0186998D01*
X0136000Y0187000D01*
X0140800Y0177400D02*
X0140708Y0177281D01*
X0140614Y0177164D01*
X0140516Y0177050D01*
X0140416Y0176938D01*
X0140312Y0176828D01*
X0140207Y0176722D01*
X0140098Y0176617D01*
X0139987Y0176516D01*
X0139873Y0176418D01*
X0139757Y0176322D01*
X0139639Y0176229D01*
X0139518Y0176140D01*
X0139395Y0176053D01*
X0139270Y0175970D01*
X0139143Y0175889D01*
X0139014Y0175812D01*
X0138883Y0175738D01*
X0138750Y0175667D01*
X0138616Y0175600D01*
X0138480Y0175536D01*
X0138342Y0175476D01*
X0138203Y0175419D01*
X0138062Y0175366D01*
X0137920Y0175316D01*
X0137777Y0175269D01*
X0137633Y0175227D01*
X0137488Y0175187D01*
X0137342Y0175152D01*
X0137195Y0175120D01*
X0137047Y0175092D01*
X0136899Y0175068D01*
X0136750Y0175047D01*
X0136600Y0175030D01*
X0136451Y0175017D01*
X0136301Y0175008D01*
X0136150Y0175002D01*
X0136000Y0175000D01*
X0140736Y0184683D02*
X0140642Y0184802D01*
X0140544Y0184918D01*
X0140444Y0185032D01*
X0140340Y0185143D01*
X0140234Y0185251D01*
X0140126Y0185357D01*
X0140014Y0185459D01*
X0139900Y0185559D01*
X0139784Y0185657D01*
X0139665Y0185751D01*
X0139544Y0185842D01*
X0139420Y0185930D01*
X0139294Y0186015D01*
X0139167Y0186096D01*
X0139037Y0186175D01*
X0138905Y0186250D01*
X0138772Y0186321D01*
X0138636Y0186390D01*
X0138499Y0186455D01*
X0138361Y0186516D01*
X0138220Y0186574D01*
X0138079Y0186628D01*
X0137936Y0186679D01*
X0137792Y0186726D01*
X0137647Y0186770D01*
X0137500Y0186809D01*
X0137353Y0186845D01*
X0137205Y0186878D01*
X0137056Y0186906D01*
X0136906Y0186931D01*
X0136756Y0186952D01*
X0136606Y0186969D01*
X0136454Y0186983D01*
X0136303Y0186992D01*
X0136152Y0186998D01*
X0136000Y0187000D01*
X0131118Y0177513D02*
X0131209Y0177388D01*
X0131303Y0177266D01*
X0131401Y0177147D01*
X0131501Y0177030D01*
X0131605Y0176916D01*
X0131711Y0176804D01*
X0131820Y0176696D01*
X0131932Y0176590D01*
X0132047Y0176487D01*
X0132164Y0176387D01*
X0132284Y0176289D01*
X0132406Y0176196D01*
X0132530Y0176105D01*
X0132657Y0176017D01*
X0132786Y0175933D01*
X0132918Y0175852D01*
X0133051Y0175775D01*
X0133186Y0175701D01*
X0133323Y0175630D01*
X0133462Y0175563D01*
X0133602Y0175500D01*
X0133745Y0175440D01*
X0133888Y0175384D01*
X0134033Y0175332D01*
X0134179Y0175283D01*
X0134327Y0175238D01*
X0134475Y0175197D01*
X0134625Y0175160D01*
X0134775Y0175126D01*
X0134927Y0175097D01*
X0135079Y0175071D01*
X0135231Y0175049D01*
X0135384Y0175032D01*
X0135538Y0175018D01*
X0135692Y0175008D01*
X0135846Y0175002D01*
X0136000Y0175000D01*
X0108500Y0197500D02*
X0108500Y0204500D01*
X0108498Y0204560D01*
X0108493Y0204621D01*
X0108484Y0204680D01*
X0108471Y0204739D01*
X0108455Y0204798D01*
X0108435Y0204855D01*
X0108412Y0204910D01*
X0108385Y0204965D01*
X0108356Y0205017D01*
X0108323Y0205068D01*
X0108287Y0205117D01*
X0108249Y0205163D01*
X0108207Y0205207D01*
X0108163Y0205249D01*
X0108117Y0205287D01*
X0108068Y0205323D01*
X0108017Y0205356D01*
X0107965Y0205385D01*
X0107910Y0205412D01*
X0107855Y0205435D01*
X0107798Y0205455D01*
X0107739Y0205471D01*
X0107680Y0205484D01*
X0107621Y0205493D01*
X0107560Y0205498D01*
X0107500Y0205500D01*
X0106000Y0205500D01*
X0105500Y0205000D01*
X0086500Y0205000D01*
X0086000Y0205500D01*
X0084500Y0205500D01*
X0084440Y0205498D01*
X0084379Y0205493D01*
X0084320Y0205484D01*
X0084261Y0205471D01*
X0084202Y0205455D01*
X0084145Y0205435D01*
X0084090Y0205412D01*
X0084035Y0205385D01*
X0083983Y0205356D01*
X0083932Y0205323D01*
X0083883Y0205287D01*
X0083837Y0205249D01*
X0083793Y0205207D01*
X0083751Y0205163D01*
X0083713Y0205117D01*
X0083677Y0205068D01*
X0083644Y0205017D01*
X0083615Y0204965D01*
X0083588Y0204910D01*
X0083565Y0204855D01*
X0083545Y0204798D01*
X0083529Y0204739D01*
X0083516Y0204680D01*
X0083507Y0204621D01*
X0083502Y0204560D01*
X0083500Y0204500D01*
X0083500Y0197500D01*
X0083502Y0197440D01*
X0083507Y0197379D01*
X0083516Y0197320D01*
X0083529Y0197261D01*
X0083545Y0197202D01*
X0083565Y0197145D01*
X0083588Y0197090D01*
X0083615Y0197035D01*
X0083644Y0196983D01*
X0083677Y0196932D01*
X0083713Y0196883D01*
X0083751Y0196837D01*
X0083793Y0196793D01*
X0083837Y0196751D01*
X0083883Y0196713D01*
X0083932Y0196677D01*
X0083983Y0196644D01*
X0084035Y0196615D01*
X0084090Y0196588D01*
X0084145Y0196565D01*
X0084202Y0196545D01*
X0084261Y0196529D01*
X0084320Y0196516D01*
X0084379Y0196507D01*
X0084440Y0196502D01*
X0084500Y0196500D01*
X0086000Y0196500D01*
X0086500Y0197000D01*
X0105500Y0197000D01*
X0106000Y0196500D01*
X0107500Y0196500D01*
X0107560Y0196502D01*
X0107621Y0196507D01*
X0107680Y0196516D01*
X0107739Y0196529D01*
X0107798Y0196545D01*
X0107855Y0196565D01*
X0107910Y0196588D01*
X0107965Y0196615D01*
X0108017Y0196644D01*
X0108068Y0196677D01*
X0108117Y0196713D01*
X0108163Y0196751D01*
X0108207Y0196793D01*
X0108249Y0196837D01*
X0108287Y0196883D01*
X0108323Y0196932D01*
X0108356Y0196983D01*
X0108385Y0197035D01*
X0108412Y0197090D01*
X0108435Y0197145D01*
X0108455Y0197202D01*
X0108471Y0197261D01*
X0108484Y0197320D01*
X0108493Y0197379D01*
X0108498Y0197440D01*
X0108500Y0197500D01*
X0107500Y0206500D02*
X0106000Y0206500D01*
X0105500Y0207000D01*
X0086500Y0207000D01*
X0086000Y0206500D01*
X0084500Y0206500D01*
X0084440Y0206502D01*
X0084379Y0206507D01*
X0084320Y0206516D01*
X0084261Y0206529D01*
X0084202Y0206545D01*
X0084145Y0206565D01*
X0084090Y0206588D01*
X0084035Y0206615D01*
X0083983Y0206644D01*
X0083932Y0206677D01*
X0083883Y0206713D01*
X0083837Y0206751D01*
X0083793Y0206793D01*
X0083751Y0206837D01*
X0083713Y0206883D01*
X0083677Y0206932D01*
X0083644Y0206983D01*
X0083615Y0207035D01*
X0083588Y0207090D01*
X0083565Y0207145D01*
X0083545Y0207202D01*
X0083529Y0207261D01*
X0083516Y0207320D01*
X0083507Y0207379D01*
X0083502Y0207440D01*
X0083500Y0207500D01*
X0083500Y0214500D01*
X0083502Y0214560D01*
X0083507Y0214621D01*
X0083516Y0214680D01*
X0083529Y0214739D01*
X0083545Y0214798D01*
X0083565Y0214855D01*
X0083588Y0214910D01*
X0083615Y0214965D01*
X0083644Y0215017D01*
X0083677Y0215068D01*
X0083713Y0215117D01*
X0083751Y0215163D01*
X0083793Y0215207D01*
X0083837Y0215249D01*
X0083883Y0215287D01*
X0083932Y0215323D01*
X0083983Y0215356D01*
X0084035Y0215385D01*
X0084090Y0215412D01*
X0084145Y0215435D01*
X0084202Y0215455D01*
X0084261Y0215471D01*
X0084320Y0215484D01*
X0084379Y0215493D01*
X0084440Y0215498D01*
X0084500Y0215500D01*
X0086000Y0215500D01*
X0086500Y0215000D01*
X0105500Y0215000D01*
X0106000Y0215500D01*
X0107500Y0215500D01*
X0107560Y0215498D01*
X0107621Y0215493D01*
X0107680Y0215484D01*
X0107739Y0215471D01*
X0107798Y0215455D01*
X0107855Y0215435D01*
X0107910Y0215412D01*
X0107965Y0215385D01*
X0108017Y0215356D01*
X0108068Y0215323D01*
X0108117Y0215287D01*
X0108163Y0215249D01*
X0108207Y0215207D01*
X0108249Y0215163D01*
X0108287Y0215117D01*
X0108323Y0215068D01*
X0108356Y0215017D01*
X0108385Y0214965D01*
X0108412Y0214910D01*
X0108435Y0214855D01*
X0108455Y0214798D01*
X0108471Y0214739D01*
X0108484Y0214680D01*
X0108493Y0214621D01*
X0108498Y0214560D01*
X0108500Y0214500D01*
X0108500Y0207500D01*
X0108498Y0207440D01*
X0108493Y0207379D01*
X0108484Y0207320D01*
X0108471Y0207261D01*
X0108455Y0207202D01*
X0108435Y0207145D01*
X0108412Y0207090D01*
X0108385Y0207035D01*
X0108356Y0206983D01*
X0108323Y0206932D01*
X0108287Y0206883D01*
X0108249Y0206837D01*
X0108207Y0206793D01*
X0108163Y0206751D01*
X0108117Y0206713D01*
X0108068Y0206677D01*
X0108017Y0206644D01*
X0107965Y0206615D01*
X0107910Y0206588D01*
X0107855Y0206565D01*
X0107798Y0206545D01*
X0107739Y0206529D01*
X0107680Y0206516D01*
X0107621Y0206507D01*
X0107560Y0206502D01*
X0107500Y0206500D01*
X0107500Y0216500D02*
X0106000Y0216500D01*
X0105500Y0217000D01*
X0086500Y0217000D01*
X0086000Y0216500D01*
X0084500Y0216500D01*
X0084440Y0216502D01*
X0084379Y0216507D01*
X0084320Y0216516D01*
X0084261Y0216529D01*
X0084202Y0216545D01*
X0084145Y0216565D01*
X0084090Y0216588D01*
X0084035Y0216615D01*
X0083983Y0216644D01*
X0083932Y0216677D01*
X0083883Y0216713D01*
X0083837Y0216751D01*
X0083793Y0216793D01*
X0083751Y0216837D01*
X0083713Y0216883D01*
X0083677Y0216932D01*
X0083644Y0216983D01*
X0083615Y0217035D01*
X0083588Y0217090D01*
X0083565Y0217145D01*
X0083545Y0217202D01*
X0083529Y0217261D01*
X0083516Y0217320D01*
X0083507Y0217379D01*
X0083502Y0217440D01*
X0083500Y0217500D01*
X0083500Y0224500D01*
X0083502Y0224560D01*
X0083507Y0224621D01*
X0083516Y0224680D01*
X0083529Y0224739D01*
X0083545Y0224798D01*
X0083565Y0224855D01*
X0083588Y0224910D01*
X0083615Y0224965D01*
X0083644Y0225017D01*
X0083677Y0225068D01*
X0083713Y0225117D01*
X0083751Y0225163D01*
X0083793Y0225207D01*
X0083837Y0225249D01*
X0083883Y0225287D01*
X0083932Y0225323D01*
X0083983Y0225356D01*
X0084035Y0225385D01*
X0084090Y0225412D01*
X0084145Y0225435D01*
X0084202Y0225455D01*
X0084261Y0225471D01*
X0084320Y0225484D01*
X0084379Y0225493D01*
X0084440Y0225498D01*
X0084500Y0225500D01*
X0086000Y0225500D01*
X0086500Y0225000D01*
X0105500Y0225000D01*
X0106000Y0225500D01*
X0107500Y0225500D01*
X0107560Y0225498D01*
X0107621Y0225493D01*
X0107680Y0225484D01*
X0107739Y0225471D01*
X0107798Y0225455D01*
X0107855Y0225435D01*
X0107910Y0225412D01*
X0107965Y0225385D01*
X0108017Y0225356D01*
X0108068Y0225323D01*
X0108117Y0225287D01*
X0108163Y0225249D01*
X0108207Y0225207D01*
X0108249Y0225163D01*
X0108287Y0225117D01*
X0108323Y0225068D01*
X0108356Y0225017D01*
X0108385Y0224965D01*
X0108412Y0224910D01*
X0108435Y0224855D01*
X0108455Y0224798D01*
X0108471Y0224739D01*
X0108484Y0224680D01*
X0108493Y0224621D01*
X0108498Y0224560D01*
X0108500Y0224500D01*
X0108500Y0217500D01*
X0108498Y0217440D01*
X0108493Y0217379D01*
X0108484Y0217320D01*
X0108471Y0217261D01*
X0108455Y0217202D01*
X0108435Y0217145D01*
X0108412Y0217090D01*
X0108385Y0217035D01*
X0108356Y0216983D01*
X0108323Y0216932D01*
X0108287Y0216883D01*
X0108249Y0216837D01*
X0108207Y0216793D01*
X0108163Y0216751D01*
X0108117Y0216713D01*
X0108068Y0216677D01*
X0108017Y0216644D01*
X0107965Y0216615D01*
X0107910Y0216588D01*
X0107855Y0216565D01*
X0107798Y0216545D01*
X0107739Y0216529D01*
X0107680Y0216516D01*
X0107621Y0216507D01*
X0107560Y0216502D01*
X0107500Y0216500D01*
X0107500Y0226500D02*
X0106000Y0226500D01*
X0105500Y0227000D01*
X0086500Y0227000D01*
X0086000Y0226500D01*
X0084500Y0226500D01*
X0084440Y0226502D01*
X0084379Y0226507D01*
X0084320Y0226516D01*
X0084261Y0226529D01*
X0084202Y0226545D01*
X0084145Y0226565D01*
X0084090Y0226588D01*
X0084035Y0226615D01*
X0083983Y0226644D01*
X0083932Y0226677D01*
X0083883Y0226713D01*
X0083837Y0226751D01*
X0083793Y0226793D01*
X0083751Y0226837D01*
X0083713Y0226883D01*
X0083677Y0226932D01*
X0083644Y0226983D01*
X0083615Y0227035D01*
X0083588Y0227090D01*
X0083565Y0227145D01*
X0083545Y0227202D01*
X0083529Y0227261D01*
X0083516Y0227320D01*
X0083507Y0227379D01*
X0083502Y0227440D01*
X0083500Y0227500D01*
X0083500Y0234500D01*
X0083502Y0234560D01*
X0083507Y0234621D01*
X0083516Y0234680D01*
X0083529Y0234739D01*
X0083545Y0234798D01*
X0083565Y0234855D01*
X0083588Y0234910D01*
X0083615Y0234965D01*
X0083644Y0235017D01*
X0083677Y0235068D01*
X0083713Y0235117D01*
X0083751Y0235163D01*
X0083793Y0235207D01*
X0083837Y0235249D01*
X0083883Y0235287D01*
X0083932Y0235323D01*
X0083983Y0235356D01*
X0084035Y0235385D01*
X0084090Y0235412D01*
X0084145Y0235435D01*
X0084202Y0235455D01*
X0084261Y0235471D01*
X0084320Y0235484D01*
X0084379Y0235493D01*
X0084440Y0235498D01*
X0084500Y0235500D01*
X0086000Y0235500D01*
X0086500Y0235000D01*
X0105500Y0235000D01*
X0106000Y0235500D01*
X0107500Y0235500D01*
X0107560Y0235498D01*
X0107621Y0235493D01*
X0107680Y0235484D01*
X0107739Y0235471D01*
X0107798Y0235455D01*
X0107855Y0235435D01*
X0107910Y0235412D01*
X0107965Y0235385D01*
X0108017Y0235356D01*
X0108068Y0235323D01*
X0108117Y0235287D01*
X0108163Y0235249D01*
X0108207Y0235207D01*
X0108249Y0235163D01*
X0108287Y0235117D01*
X0108323Y0235068D01*
X0108356Y0235017D01*
X0108385Y0234965D01*
X0108412Y0234910D01*
X0108435Y0234855D01*
X0108455Y0234798D01*
X0108471Y0234739D01*
X0108484Y0234680D01*
X0108493Y0234621D01*
X0108498Y0234560D01*
X0108500Y0234500D01*
X0108500Y0227500D01*
X0108498Y0227440D01*
X0108493Y0227379D01*
X0108484Y0227320D01*
X0108471Y0227261D01*
X0108455Y0227202D01*
X0108435Y0227145D01*
X0108412Y0227090D01*
X0108385Y0227035D01*
X0108356Y0226983D01*
X0108323Y0226932D01*
X0108287Y0226883D01*
X0108249Y0226837D01*
X0108207Y0226793D01*
X0108163Y0226751D01*
X0108117Y0226713D01*
X0108068Y0226677D01*
X0108017Y0226644D01*
X0107965Y0226615D01*
X0107910Y0226588D01*
X0107855Y0226565D01*
X0107798Y0226545D01*
X0107739Y0226529D01*
X0107680Y0226516D01*
X0107621Y0226507D01*
X0107560Y0226502D01*
X0107500Y0226500D01*
X0107500Y0236500D02*
X0106000Y0236500D01*
X0105500Y0237000D01*
X0086500Y0237000D01*
X0086000Y0236500D01*
X0084500Y0236500D01*
X0084440Y0236502D01*
X0084379Y0236507D01*
X0084320Y0236516D01*
X0084261Y0236529D01*
X0084202Y0236545D01*
X0084145Y0236565D01*
X0084090Y0236588D01*
X0084035Y0236615D01*
X0083983Y0236644D01*
X0083932Y0236677D01*
X0083883Y0236713D01*
X0083837Y0236751D01*
X0083793Y0236793D01*
X0083751Y0236837D01*
X0083713Y0236883D01*
X0083677Y0236932D01*
X0083644Y0236983D01*
X0083615Y0237035D01*
X0083588Y0237090D01*
X0083565Y0237145D01*
X0083545Y0237202D01*
X0083529Y0237261D01*
X0083516Y0237320D01*
X0083507Y0237379D01*
X0083502Y0237440D01*
X0083500Y0237500D01*
X0083500Y0244500D01*
X0083502Y0244560D01*
X0083507Y0244621D01*
X0083516Y0244680D01*
X0083529Y0244739D01*
X0083545Y0244798D01*
X0083565Y0244855D01*
X0083588Y0244910D01*
X0083615Y0244965D01*
X0083644Y0245017D01*
X0083677Y0245068D01*
X0083713Y0245117D01*
X0083751Y0245163D01*
X0083793Y0245207D01*
X0083837Y0245249D01*
X0083883Y0245287D01*
X0083932Y0245323D01*
X0083983Y0245356D01*
X0084035Y0245385D01*
X0084090Y0245412D01*
X0084145Y0245435D01*
X0084202Y0245455D01*
X0084261Y0245471D01*
X0084320Y0245484D01*
X0084379Y0245493D01*
X0084440Y0245498D01*
X0084500Y0245500D01*
X0086000Y0245500D01*
X0086500Y0245000D01*
X0105500Y0245000D01*
X0106000Y0245500D01*
X0107500Y0245500D01*
X0107500Y0246500D02*
X0106000Y0246500D01*
X0105500Y0247000D01*
X0086500Y0247000D01*
X0086000Y0246500D01*
X0084500Y0246500D01*
X0084440Y0246502D01*
X0084379Y0246507D01*
X0084320Y0246516D01*
X0084261Y0246529D01*
X0084202Y0246545D01*
X0084145Y0246565D01*
X0084090Y0246588D01*
X0084035Y0246615D01*
X0083983Y0246644D01*
X0083932Y0246677D01*
X0083883Y0246713D01*
X0083837Y0246751D01*
X0083793Y0246793D01*
X0083751Y0246837D01*
X0083713Y0246883D01*
X0083677Y0246932D01*
X0083644Y0246983D01*
X0083615Y0247035D01*
X0083588Y0247090D01*
X0083565Y0247145D01*
X0083545Y0247202D01*
X0083529Y0247261D01*
X0083516Y0247320D01*
X0083507Y0247379D01*
X0083502Y0247440D01*
X0083500Y0247500D01*
X0083500Y0254500D01*
X0083502Y0254560D01*
X0083507Y0254621D01*
X0083516Y0254680D01*
X0083529Y0254739D01*
X0083545Y0254798D01*
X0083565Y0254855D01*
X0083588Y0254910D01*
X0083615Y0254965D01*
X0083644Y0255017D01*
X0083677Y0255068D01*
X0083713Y0255117D01*
X0083751Y0255163D01*
X0083793Y0255207D01*
X0083837Y0255249D01*
X0083883Y0255287D01*
X0083932Y0255323D01*
X0083983Y0255356D01*
X0084035Y0255385D01*
X0084090Y0255412D01*
X0084145Y0255435D01*
X0084202Y0255455D01*
X0084261Y0255471D01*
X0084320Y0255484D01*
X0084379Y0255493D01*
X0084440Y0255498D01*
X0084500Y0255500D01*
X0086000Y0255500D01*
X0086500Y0255000D01*
X0105500Y0255000D01*
X0106000Y0255500D01*
X0107500Y0255500D01*
X0107560Y0255498D01*
X0107621Y0255493D01*
X0107680Y0255484D01*
X0107739Y0255471D01*
X0107798Y0255455D01*
X0107855Y0255435D01*
X0107910Y0255412D01*
X0107965Y0255385D01*
X0108017Y0255356D01*
X0108068Y0255323D01*
X0108117Y0255287D01*
X0108163Y0255249D01*
X0108207Y0255207D01*
X0108249Y0255163D01*
X0108287Y0255117D01*
X0108323Y0255068D01*
X0108356Y0255017D01*
X0108385Y0254965D01*
X0108412Y0254910D01*
X0108435Y0254855D01*
X0108455Y0254798D01*
X0108471Y0254739D01*
X0108484Y0254680D01*
X0108493Y0254621D01*
X0108498Y0254560D01*
X0108500Y0254500D01*
X0108500Y0247500D01*
X0108498Y0247440D01*
X0108493Y0247379D01*
X0108484Y0247320D01*
X0108471Y0247261D01*
X0108455Y0247202D01*
X0108435Y0247145D01*
X0108412Y0247090D01*
X0108385Y0247035D01*
X0108356Y0246983D01*
X0108323Y0246932D01*
X0108287Y0246883D01*
X0108249Y0246837D01*
X0108207Y0246793D01*
X0108163Y0246751D01*
X0108117Y0246713D01*
X0108068Y0246677D01*
X0108017Y0246644D01*
X0107965Y0246615D01*
X0107910Y0246588D01*
X0107855Y0246565D01*
X0107798Y0246545D01*
X0107739Y0246529D01*
X0107680Y0246516D01*
X0107621Y0246507D01*
X0107560Y0246502D01*
X0107500Y0246500D01*
X0107500Y0245500D02*
X0107560Y0245498D01*
X0107621Y0245493D01*
X0107680Y0245484D01*
X0107739Y0245471D01*
X0107798Y0245455D01*
X0107855Y0245435D01*
X0107910Y0245412D01*
X0107965Y0245385D01*
X0108017Y0245356D01*
X0108068Y0245323D01*
X0108117Y0245287D01*
X0108163Y0245249D01*
X0108207Y0245207D01*
X0108249Y0245163D01*
X0108287Y0245117D01*
X0108323Y0245068D01*
X0108356Y0245017D01*
X0108385Y0244965D01*
X0108412Y0244910D01*
X0108435Y0244855D01*
X0108455Y0244798D01*
X0108471Y0244739D01*
X0108484Y0244680D01*
X0108493Y0244621D01*
X0108498Y0244560D01*
X0108500Y0244500D01*
X0108500Y0237500D01*
X0108498Y0237440D01*
X0108493Y0237379D01*
X0108484Y0237320D01*
X0108471Y0237261D01*
X0108455Y0237202D01*
X0108435Y0237145D01*
X0108412Y0237090D01*
X0108385Y0237035D01*
X0108356Y0236983D01*
X0108323Y0236932D01*
X0108287Y0236883D01*
X0108249Y0236837D01*
X0108207Y0236793D01*
X0108163Y0236751D01*
X0108117Y0236713D01*
X0108068Y0236677D01*
X0108017Y0236644D01*
X0107965Y0236615D01*
X0107910Y0236588D01*
X0107855Y0236565D01*
X0107798Y0236545D01*
X0107739Y0236529D01*
X0107680Y0236516D01*
X0107621Y0236507D01*
X0107560Y0236502D01*
X0107500Y0236500D01*
X0061000Y0238500D02*
X0058500Y0236000D01*
X0061000Y0233500D01*
X0061000Y0228500D01*
X0058500Y0226000D01*
X0061000Y0223500D01*
X0061000Y0218500D01*
X0058500Y0216000D01*
X0061000Y0213500D01*
X0061000Y0208500D01*
X0058500Y0206000D01*
X0061000Y0203500D01*
X0061000Y0198500D01*
X0058500Y0196000D01*
X0053500Y0196000D01*
X0051000Y0198500D01*
X0051000Y0203500D01*
X0053500Y0206000D01*
X0051000Y0208500D01*
X0051000Y0213500D01*
X0053500Y0216000D01*
X0051000Y0218500D01*
X0051000Y0223500D01*
X0053500Y0226000D01*
X0051000Y0228500D01*
X0051000Y0233500D01*
X0053500Y0236000D01*
X0051000Y0238500D01*
X0051000Y0243500D01*
X0053500Y0246000D01*
X0051000Y0248500D01*
X0051000Y0253500D01*
X0053500Y0256000D01*
X0051000Y0258500D01*
X0051000Y0263500D01*
X0053500Y0266000D01*
X0051000Y0268500D01*
X0051000Y0273500D01*
X0053500Y0276000D01*
X0058500Y0276000D01*
X0061000Y0273500D01*
X0061000Y0268500D01*
X0058500Y0266000D01*
X0061000Y0263500D01*
X0061000Y0258500D01*
X0058500Y0256000D01*
X0061000Y0253500D01*
X0061000Y0248500D01*
X0058500Y0246000D01*
X0061000Y0243500D01*
X0061000Y0238500D01*
X0127000Y0281000D02*
X0127000Y0286000D01*
X0127000Y0281000D02*
X0131000Y0277000D01*
X0132000Y0276000D01*
X0144000Y0276000D01*
X0144000Y0277000D01*
X0147000Y0277000D01*
X0147000Y0275500D01*
X0155000Y0275500D01*
X0155000Y0277000D01*
X0158000Y0277000D01*
X0158000Y0276000D01*
X0170000Y0276000D01*
X0171000Y0277000D01*
X0175000Y0281000D01*
X0175000Y0286000D01*
X0171000Y0277000D02*
X0158000Y0277000D01*
X0155000Y0277000D02*
X0147000Y0277000D01*
X0144000Y0277000D02*
X0131000Y0277000D01*
X0127000Y0296500D02*
X0127000Y0305500D01*
X0127000Y0316000D02*
X0127000Y0321000D01*
X0131000Y0325000D01*
X0132000Y0326000D01*
X0144000Y0326000D01*
X0144000Y0325000D01*
X0131000Y0325000D01*
X0144000Y0325000D02*
X0147000Y0325000D01*
X0155000Y0325000D01*
X0158000Y0325000D01*
X0158000Y0326000D01*
X0170000Y0326000D01*
X0171000Y0325000D01*
X0158000Y0325000D01*
X0155000Y0325000D02*
X0155000Y0326500D01*
X0147000Y0326500D01*
X0147000Y0325000D01*
X0171000Y0325000D02*
X0175000Y0321000D01*
X0175000Y0316000D01*
X0175000Y0305500D02*
X0175000Y0296500D01*
X0158500Y0293500D02*
X0158500Y0308500D01*
X0143500Y0308500D01*
X0143500Y0293500D01*
X0158500Y0293500D01*
X0137000Y0301000D02*
X0137004Y0301344D01*
X0137017Y0301687D01*
X0137038Y0302030D01*
X0137067Y0302372D01*
X0137105Y0302714D01*
X0137152Y0303054D01*
X0137206Y0303393D01*
X0137269Y0303731D01*
X0137340Y0304067D01*
X0137420Y0304402D01*
X0137507Y0304734D01*
X0137603Y0305064D01*
X0137707Y0305392D01*
X0137818Y0305716D01*
X0137938Y0306039D01*
X0138066Y0306358D01*
X0138201Y0306673D01*
X0138344Y0306986D01*
X0138495Y0307295D01*
X0138653Y0307600D01*
X0138819Y0307901D01*
X0138992Y0308197D01*
X0139172Y0308490D01*
X0139359Y0308778D01*
X0139554Y0309061D01*
X0139755Y0309340D01*
X0139963Y0309613D01*
X0140178Y0309882D01*
X0140399Y0310144D01*
X0140627Y0310402D01*
X0140861Y0310654D01*
X0141101Y0310899D01*
X0141346Y0311139D01*
X0141598Y0311373D01*
X0141856Y0311601D01*
X0142118Y0311822D01*
X0142387Y0312037D01*
X0142660Y0312245D01*
X0142939Y0312446D01*
X0143222Y0312641D01*
X0143510Y0312828D01*
X0143803Y0313008D01*
X0144099Y0313181D01*
X0144400Y0313347D01*
X0144705Y0313505D01*
X0145014Y0313656D01*
X0145327Y0313799D01*
X0145642Y0313934D01*
X0145961Y0314062D01*
X0146284Y0314182D01*
X0146608Y0314293D01*
X0146936Y0314397D01*
X0147266Y0314493D01*
X0147598Y0314580D01*
X0147933Y0314660D01*
X0148269Y0314731D01*
X0148607Y0314794D01*
X0148946Y0314848D01*
X0149286Y0314895D01*
X0149628Y0314933D01*
X0149970Y0314962D01*
X0150313Y0314983D01*
X0150656Y0314996D01*
X0151000Y0315000D01*
X0151344Y0314996D01*
X0151687Y0314983D01*
X0152030Y0314962D01*
X0152372Y0314933D01*
X0152714Y0314895D01*
X0153054Y0314848D01*
X0153393Y0314794D01*
X0153731Y0314731D01*
X0154067Y0314660D01*
X0154402Y0314580D01*
X0154734Y0314493D01*
X0155064Y0314397D01*
X0155392Y0314293D01*
X0155716Y0314182D01*
X0156039Y0314062D01*
X0156358Y0313934D01*
X0156673Y0313799D01*
X0156986Y0313656D01*
X0157295Y0313505D01*
X0157600Y0313347D01*
X0157901Y0313181D01*
X0158197Y0313008D01*
X0158490Y0312828D01*
X0158778Y0312641D01*
X0159061Y0312446D01*
X0159340Y0312245D01*
X0159613Y0312037D01*
X0159882Y0311822D01*
X0160144Y0311601D01*
X0160402Y0311373D01*
X0160654Y0311139D01*
X0160899Y0310899D01*
X0161139Y0310654D01*
X0161373Y0310402D01*
X0161601Y0310144D01*
X0161822Y0309882D01*
X0162037Y0309613D01*
X0162245Y0309340D01*
X0162446Y0309061D01*
X0162641Y0308778D01*
X0162828Y0308490D01*
X0163008Y0308197D01*
X0163181Y0307901D01*
X0163347Y0307600D01*
X0163505Y0307295D01*
X0163656Y0306986D01*
X0163799Y0306673D01*
X0163934Y0306358D01*
X0164062Y0306039D01*
X0164182Y0305716D01*
X0164293Y0305392D01*
X0164397Y0305064D01*
X0164493Y0304734D01*
X0164580Y0304402D01*
X0164660Y0304067D01*
X0164731Y0303731D01*
X0164794Y0303393D01*
X0164848Y0303054D01*
X0164895Y0302714D01*
X0164933Y0302372D01*
X0164962Y0302030D01*
X0164983Y0301687D01*
X0164996Y0301344D01*
X0165000Y0301000D01*
X0164996Y0300656D01*
X0164983Y0300313D01*
X0164962Y0299970D01*
X0164933Y0299628D01*
X0164895Y0299286D01*
X0164848Y0298946D01*
X0164794Y0298607D01*
X0164731Y0298269D01*
X0164660Y0297933D01*
X0164580Y0297598D01*
X0164493Y0297266D01*
X0164397Y0296936D01*
X0164293Y0296608D01*
X0164182Y0296284D01*
X0164062Y0295961D01*
X0163934Y0295642D01*
X0163799Y0295327D01*
X0163656Y0295014D01*
X0163505Y0294705D01*
X0163347Y0294400D01*
X0163181Y0294099D01*
X0163008Y0293803D01*
X0162828Y0293510D01*
X0162641Y0293222D01*
X0162446Y0292939D01*
X0162245Y0292660D01*
X0162037Y0292387D01*
X0161822Y0292118D01*
X0161601Y0291856D01*
X0161373Y0291598D01*
X0161139Y0291346D01*
X0160899Y0291101D01*
X0160654Y0290861D01*
X0160402Y0290627D01*
X0160144Y0290399D01*
X0159882Y0290178D01*
X0159613Y0289963D01*
X0159340Y0289755D01*
X0159061Y0289554D01*
X0158778Y0289359D01*
X0158490Y0289172D01*
X0158197Y0288992D01*
X0157901Y0288819D01*
X0157600Y0288653D01*
X0157295Y0288495D01*
X0156986Y0288344D01*
X0156673Y0288201D01*
X0156358Y0288066D01*
X0156039Y0287938D01*
X0155716Y0287818D01*
X0155392Y0287707D01*
X0155064Y0287603D01*
X0154734Y0287507D01*
X0154402Y0287420D01*
X0154067Y0287340D01*
X0153731Y0287269D01*
X0153393Y0287206D01*
X0153054Y0287152D01*
X0152714Y0287105D01*
X0152372Y0287067D01*
X0152030Y0287038D01*
X0151687Y0287017D01*
X0151344Y0287004D01*
X0151000Y0287000D01*
X0150656Y0287004D01*
X0150313Y0287017D01*
X0149970Y0287038D01*
X0149628Y0287067D01*
X0149286Y0287105D01*
X0148946Y0287152D01*
X0148607Y0287206D01*
X0148269Y0287269D01*
X0147933Y0287340D01*
X0147598Y0287420D01*
X0147266Y0287507D01*
X0146936Y0287603D01*
X0146608Y0287707D01*
X0146284Y0287818D01*
X0145961Y0287938D01*
X0145642Y0288066D01*
X0145327Y0288201D01*
X0145014Y0288344D01*
X0144705Y0288495D01*
X0144400Y0288653D01*
X0144099Y0288819D01*
X0143803Y0288992D01*
X0143510Y0289172D01*
X0143222Y0289359D01*
X0142939Y0289554D01*
X0142660Y0289755D01*
X0142387Y0289963D01*
X0142118Y0290178D01*
X0141856Y0290399D01*
X0141598Y0290627D01*
X0141346Y0290861D01*
X0141101Y0291101D01*
X0140861Y0291346D01*
X0140627Y0291598D01*
X0140399Y0291856D01*
X0140178Y0292118D01*
X0139963Y0292387D01*
X0139755Y0292660D01*
X0139554Y0292939D01*
X0139359Y0293222D01*
X0139172Y0293510D01*
X0138992Y0293803D01*
X0138819Y0294099D01*
X0138653Y0294400D01*
X0138495Y0294705D01*
X0138344Y0295014D01*
X0138201Y0295327D01*
X0138066Y0295642D01*
X0137938Y0295961D01*
X0137818Y0296284D01*
X0137707Y0296608D01*
X0137603Y0296936D01*
X0137507Y0297266D01*
X0137420Y0297598D01*
X0137340Y0297933D01*
X0137269Y0298269D01*
X0137206Y0298607D01*
X0137152Y0298946D01*
X0137105Y0299286D01*
X0137067Y0299628D01*
X0137038Y0299970D01*
X0137017Y0300313D01*
X0137004Y0300656D01*
X0137000Y0301000D01*
X0241000Y0273500D02*
X0241000Y0268500D01*
X0243500Y0266000D01*
X0241000Y0263500D01*
X0241000Y0258500D01*
X0243500Y0256000D01*
X0241000Y0253500D01*
X0241000Y0248500D01*
X0243500Y0246000D01*
X0241000Y0243500D01*
X0241000Y0238500D01*
X0243500Y0236000D01*
X0241000Y0233500D01*
X0241000Y0228500D01*
X0243500Y0226000D01*
X0241000Y0223500D01*
X0241000Y0218500D01*
X0243500Y0216000D01*
X0248500Y0216000D01*
X0251000Y0218500D01*
X0251000Y0223500D01*
X0248500Y0226000D01*
X0251000Y0228500D01*
X0251000Y0233500D01*
X0248500Y0236000D01*
X0251000Y0238500D01*
X0251000Y0243500D01*
X0248500Y0246000D01*
X0251000Y0248500D01*
X0251000Y0253500D01*
X0248500Y0256000D01*
X0251000Y0258500D01*
X0251000Y0263500D01*
X0248500Y0266000D01*
X0251000Y0268500D01*
X0251000Y0273500D01*
X0248500Y0276000D01*
X0243500Y0276000D01*
X0241000Y0273500D01*
X0243500Y0206000D02*
X0241000Y0203500D01*
X0241000Y0198500D01*
X0243500Y0196000D01*
X0241000Y0193500D01*
X0241000Y0188500D01*
X0243500Y0186000D01*
X0241000Y0183500D01*
X0241000Y0178500D01*
X0243500Y0176000D01*
X0241000Y0173500D01*
X0241000Y0168500D01*
X0243500Y0166000D01*
X0241000Y0163500D01*
X0241000Y0158500D01*
X0243500Y0156000D01*
X0241000Y0153500D01*
X0241000Y0148500D01*
X0243500Y0146000D01*
X0248500Y0146000D01*
X0251000Y0148500D01*
X0251000Y0153500D01*
X0248500Y0156000D01*
X0251000Y0158500D01*
X0251000Y0163500D01*
X0248500Y0166000D01*
X0251000Y0168500D01*
X0251000Y0173500D01*
X0248500Y0176000D01*
X0251000Y0178500D01*
X0251000Y0183500D01*
X0248500Y0186000D01*
X0251000Y0188500D01*
X0251000Y0193500D01*
X0248500Y0196000D01*
X0251000Y0198500D01*
X0251000Y0203500D01*
X0248500Y0206000D01*
X0243500Y0206000D01*
X0176000Y0175000D02*
X0175848Y0175002D01*
X0175697Y0175008D01*
X0175546Y0175017D01*
X0175394Y0175031D01*
X0175244Y0175048D01*
X0175094Y0175069D01*
X0174944Y0175094D01*
X0174795Y0175122D01*
X0174647Y0175155D01*
X0174500Y0175191D01*
X0174353Y0175230D01*
X0174208Y0175274D01*
X0174064Y0175321D01*
X0173921Y0175372D01*
X0173780Y0175426D01*
X0173639Y0175484D01*
X0173501Y0175545D01*
X0173364Y0175610D01*
X0173228Y0175679D01*
X0173095Y0175750D01*
X0172963Y0175825D01*
X0172833Y0175904D01*
X0172706Y0175985D01*
X0172580Y0176070D01*
X0172456Y0176158D01*
X0172335Y0176249D01*
X0172216Y0176343D01*
X0172100Y0176441D01*
X0171986Y0176541D01*
X0171874Y0176643D01*
X0171766Y0176749D01*
X0171660Y0176857D01*
X0171556Y0176968D01*
X0171456Y0177082D01*
X0171358Y0177198D01*
X0171264Y0177317D01*
X0176000Y0187000D02*
X0176154Y0186998D01*
X0176308Y0186992D01*
X0176462Y0186982D01*
X0176616Y0186968D01*
X0176769Y0186951D01*
X0176921Y0186929D01*
X0177073Y0186903D01*
X0177225Y0186874D01*
X0177375Y0186840D01*
X0177525Y0186803D01*
X0177673Y0186762D01*
X0177821Y0186717D01*
X0177967Y0186668D01*
X0178112Y0186616D01*
X0178255Y0186560D01*
X0178398Y0186500D01*
X0178538Y0186437D01*
X0178677Y0186370D01*
X0178814Y0186299D01*
X0178949Y0186225D01*
X0179082Y0186148D01*
X0179214Y0186067D01*
X0179343Y0185983D01*
X0179470Y0185895D01*
X0179594Y0185804D01*
X0179716Y0185711D01*
X0179836Y0185613D01*
X0179953Y0185513D01*
X0180068Y0185410D01*
X0180180Y0185304D01*
X0180289Y0185196D01*
X0180395Y0185084D01*
X0180499Y0184970D01*
X0180599Y0184853D01*
X0180697Y0184734D01*
X0180791Y0184612D01*
X0180882Y0184487D01*
X0176000Y0187000D02*
X0175850Y0186998D01*
X0175699Y0186992D01*
X0175549Y0186983D01*
X0175400Y0186970D01*
X0175250Y0186953D01*
X0175101Y0186932D01*
X0174953Y0186908D01*
X0174805Y0186880D01*
X0174658Y0186848D01*
X0174512Y0186813D01*
X0174367Y0186773D01*
X0174223Y0186731D01*
X0174080Y0186684D01*
X0173938Y0186634D01*
X0173797Y0186581D01*
X0173658Y0186524D01*
X0173520Y0186464D01*
X0173384Y0186400D01*
X0173250Y0186333D01*
X0173117Y0186262D01*
X0172986Y0186188D01*
X0172857Y0186111D01*
X0172730Y0186030D01*
X0172605Y0185947D01*
X0172482Y0185860D01*
X0172361Y0185771D01*
X0172243Y0185678D01*
X0172127Y0185582D01*
X0172013Y0185484D01*
X0171902Y0185383D01*
X0171793Y0185278D01*
X0171688Y0185172D01*
X0171584Y0185062D01*
X0171484Y0184950D01*
X0171386Y0184836D01*
X0171292Y0184719D01*
X0171200Y0184600D01*
X0176000Y0175000D02*
X0176152Y0175002D01*
X0176303Y0175008D01*
X0176454Y0175017D01*
X0176606Y0175031D01*
X0176756Y0175048D01*
X0176906Y0175069D01*
X0177056Y0175094D01*
X0177205Y0175122D01*
X0177353Y0175155D01*
X0177500Y0175191D01*
X0177647Y0175230D01*
X0177792Y0175274D01*
X0177936Y0175321D01*
X0178079Y0175372D01*
X0178220Y0175426D01*
X0178361Y0175484D01*
X0178499Y0175545D01*
X0178636Y0175610D01*
X0178772Y0175679D01*
X0178905Y0175750D01*
X0179037Y0175825D01*
X0179167Y0175904D01*
X0179294Y0175985D01*
X0179420Y0176070D01*
X0179544Y0176158D01*
X0179665Y0176249D01*
X0179784Y0176343D01*
X0179900Y0176441D01*
X0180014Y0176541D01*
X0180126Y0176643D01*
X0180234Y0176749D01*
X0180340Y0176857D01*
X0180444Y0176968D01*
X0180544Y0177082D01*
X0180642Y0177198D01*
X0180736Y0177317D01*
D11*
X0113337Y0109750D02*
X0110334Y0109750D01*
X0110334Y0114254D01*
X0114938Y0114254D02*
X0114938Y0109750D01*
X0117941Y0109750D01*
X0119542Y0109750D02*
X0121794Y0109750D01*
X0122545Y0110501D01*
X0122545Y0113503D01*
X0121794Y0114254D01*
X0119542Y0114254D01*
X0119542Y0109750D01*
X0116439Y0112002D02*
X0114938Y0112002D01*
X0114938Y0114254D02*
X0117941Y0114254D01*
X0124146Y0112002D02*
X0127149Y0112002D01*
X0126398Y0114254D02*
X0124146Y0112002D01*
X0126398Y0109750D02*
X0126398Y0114254D01*
X0126398Y0144750D02*
X0124897Y0144750D01*
X0124146Y0145501D01*
X0124146Y0147002D02*
X0125647Y0147753D01*
X0126398Y0147753D01*
X0127149Y0147002D01*
X0127149Y0145501D01*
X0126398Y0144750D01*
X0124146Y0147002D02*
X0124146Y0149254D01*
X0127149Y0149254D01*
X0122545Y0148503D02*
X0122545Y0145501D01*
X0121794Y0144750D01*
X0119542Y0144750D01*
X0119542Y0149254D01*
X0121794Y0149254D01*
X0122545Y0148503D01*
X0117941Y0149254D02*
X0114938Y0149254D01*
X0114938Y0144750D01*
X0117941Y0144750D01*
X0116439Y0147002D02*
X0114938Y0147002D01*
X0113337Y0144750D02*
X0110334Y0144750D01*
X0110334Y0149254D01*
X0110334Y0174750D02*
X0113337Y0174750D01*
X0114938Y0174750D02*
X0114938Y0179254D01*
X0117941Y0179254D01*
X0119542Y0179254D02*
X0121794Y0179254D01*
X0122545Y0178503D01*
X0122545Y0175501D01*
X0121794Y0174750D01*
X0119542Y0174750D01*
X0119542Y0179254D01*
X0116439Y0177002D02*
X0114938Y0177002D01*
X0114938Y0174750D02*
X0117941Y0174750D01*
X0124146Y0175501D02*
X0124897Y0174750D01*
X0126398Y0174750D01*
X0127149Y0175501D01*
X0127149Y0176251D01*
X0126398Y0177002D01*
X0124146Y0177002D01*
X0124146Y0175501D01*
X0124146Y0177002D02*
X0125647Y0178503D01*
X0127149Y0179254D01*
X0110334Y0179254D02*
X0110334Y0174750D01*
X0067250Y0199897D02*
X0066499Y0199146D01*
X0065749Y0199146D01*
X0064998Y0199897D01*
X0064998Y0201398D01*
X0065749Y0202149D01*
X0066499Y0202149D01*
X0067250Y0201398D01*
X0067250Y0199897D01*
X0064998Y0199897D02*
X0064247Y0199146D01*
X0063497Y0199146D01*
X0062746Y0199897D01*
X0062746Y0201398D01*
X0063497Y0202149D01*
X0064247Y0202149D01*
X0064998Y0201398D01*
X0084250Y0207250D02*
X0084250Y0211754D01*
X0086502Y0211754D01*
X0087253Y0211003D01*
X0087253Y0209502D01*
X0086502Y0208751D01*
X0084250Y0208751D01*
X0085751Y0208751D02*
X0087253Y0207250D01*
X0088854Y0208001D02*
X0089605Y0207250D01*
X0091106Y0207250D01*
X0091856Y0208001D01*
X0091856Y0208751D01*
X0091106Y0209502D01*
X0088854Y0209502D01*
X0088854Y0208001D01*
X0088854Y0209502D02*
X0090355Y0211003D01*
X0091856Y0211754D01*
X0091106Y0217250D02*
X0089605Y0217250D01*
X0088854Y0218001D01*
X0088854Y0219502D02*
X0090355Y0220253D01*
X0091106Y0220253D01*
X0091856Y0219502D01*
X0091856Y0218001D01*
X0091106Y0217250D01*
X0088854Y0219502D02*
X0088854Y0221754D01*
X0091856Y0221754D01*
X0087253Y0221003D02*
X0087253Y0219502D01*
X0086502Y0218751D01*
X0084250Y0218751D01*
X0084250Y0217250D02*
X0084250Y0221754D01*
X0086502Y0221754D01*
X0087253Y0221003D01*
X0085751Y0218751D02*
X0087253Y0217250D01*
X0087253Y0227250D02*
X0085751Y0228751D01*
X0086502Y0228751D02*
X0084250Y0228751D01*
X0084250Y0227250D02*
X0084250Y0231754D01*
X0086502Y0231754D01*
X0087253Y0231003D01*
X0087253Y0229502D01*
X0086502Y0228751D01*
X0088854Y0229502D02*
X0091106Y0231754D01*
X0091106Y0227250D01*
X0091856Y0229502D02*
X0088854Y0229502D01*
X0089605Y0237250D02*
X0088854Y0238001D01*
X0089605Y0237250D02*
X0091106Y0237250D01*
X0091856Y0238001D01*
X0091856Y0238751D01*
X0091106Y0239502D01*
X0090355Y0239502D01*
X0091106Y0239502D02*
X0091856Y0240253D01*
X0091856Y0241003D01*
X0091106Y0241754D01*
X0089605Y0241754D01*
X0088854Y0241003D01*
X0087253Y0241003D02*
X0086502Y0241754D01*
X0084250Y0241754D01*
X0084250Y0237250D01*
X0084250Y0238751D02*
X0086502Y0238751D01*
X0087253Y0239502D01*
X0087253Y0241003D01*
X0085751Y0238751D02*
X0087253Y0237250D01*
X0087253Y0247250D02*
X0085751Y0248751D01*
X0086502Y0248751D02*
X0084250Y0248751D01*
X0084250Y0247250D02*
X0084250Y0251754D01*
X0086502Y0251754D01*
X0087253Y0251003D01*
X0087253Y0249502D01*
X0086502Y0248751D01*
X0088854Y0247250D02*
X0091856Y0250253D01*
X0091856Y0251003D01*
X0091106Y0251754D01*
X0089605Y0251754D01*
X0088854Y0251003D01*
X0088854Y0247250D02*
X0091856Y0247250D01*
X0091856Y0257250D02*
X0088854Y0257250D01*
X0090355Y0257250D02*
X0090355Y0261754D01*
X0088854Y0260253D01*
X0087253Y0261003D02*
X0086502Y0261754D01*
X0084250Y0261754D01*
X0084250Y0257250D01*
X0084250Y0258751D02*
X0086502Y0258751D01*
X0087253Y0259502D01*
X0087253Y0261003D01*
X0085751Y0258751D02*
X0087253Y0257250D01*
X0067250Y0263189D02*
X0066499Y0262438D01*
X0067250Y0263189D02*
X0067250Y0264690D01*
X0066499Y0265441D01*
X0065749Y0265441D01*
X0064998Y0264690D01*
X0064998Y0263189D01*
X0064247Y0262438D01*
X0063497Y0262438D01*
X0062746Y0263189D01*
X0062746Y0264690D01*
X0063497Y0265441D01*
X0062746Y0267042D02*
X0065749Y0267042D01*
X0067250Y0268543D01*
X0065749Y0270045D01*
X0062746Y0270045D01*
X0064998Y0271646D02*
X0062746Y0273898D01*
X0067250Y0273898D01*
X0064998Y0274649D02*
X0064998Y0271646D01*
X0049250Y0271649D02*
X0049250Y0268646D01*
X0049250Y0270147D02*
X0044746Y0270147D01*
X0046247Y0268646D01*
X0131146Y0283250D02*
X0134149Y0286253D01*
X0134149Y0287003D01*
X0133398Y0287754D01*
X0131897Y0287754D01*
X0131146Y0287003D01*
X0131146Y0283250D02*
X0134149Y0283250D01*
X0162042Y0272503D02*
X0162042Y0271753D01*
X0162793Y0271002D01*
X0164294Y0271002D01*
X0165045Y0270251D01*
X0165045Y0269501D01*
X0164294Y0268750D01*
X0162793Y0268750D01*
X0162042Y0269501D01*
X0162042Y0272503D02*
X0162793Y0273254D01*
X0164294Y0273254D01*
X0165045Y0272503D01*
X0166646Y0271753D02*
X0168147Y0273254D01*
X0168147Y0268750D01*
X0166646Y0268750D02*
X0169649Y0268750D01*
X0170149Y0283250D02*
X0167146Y0283250D01*
X0168647Y0283250D02*
X0168647Y0287754D01*
X0167146Y0286253D01*
X0167897Y0314750D02*
X0167146Y0315501D01*
X0167897Y0314750D02*
X0169398Y0314750D01*
X0170149Y0315501D01*
X0170149Y0316251D01*
X0169398Y0317002D01*
X0168647Y0317002D01*
X0169398Y0317002D02*
X0170149Y0317753D01*
X0170149Y0318503D01*
X0169398Y0319254D01*
X0167897Y0319254D01*
X0167146Y0318503D01*
X0133649Y0317002D02*
X0130646Y0317002D01*
X0132898Y0319254D01*
X0132898Y0314750D01*
X0234746Y0271753D02*
X0235497Y0270251D01*
X0236998Y0268750D01*
X0236998Y0271002D01*
X0237749Y0271753D01*
X0238499Y0271753D01*
X0239250Y0271002D01*
X0239250Y0269501D01*
X0238499Y0268750D01*
X0236998Y0268750D01*
X0239250Y0228460D02*
X0239250Y0225458D01*
X0239250Y0226959D02*
X0234746Y0226959D01*
X0236247Y0225458D01*
X0237749Y0223856D02*
X0234746Y0223856D01*
X0234746Y0220854D02*
X0237749Y0220854D01*
X0239250Y0222355D01*
X0237749Y0223856D01*
X0237749Y0219253D02*
X0238499Y0219253D01*
X0239250Y0218502D01*
X0239250Y0217001D01*
X0238499Y0216250D01*
X0236998Y0217001D02*
X0236998Y0218502D01*
X0237749Y0219253D01*
X0235497Y0219253D02*
X0234746Y0218502D01*
X0234746Y0217001D01*
X0235497Y0216250D01*
X0236247Y0216250D01*
X0236998Y0217001D01*
X0252746Y0220251D02*
X0257250Y0220251D01*
X0257250Y0218750D02*
X0257250Y0221753D01*
X0254247Y0218750D02*
X0252746Y0220251D01*
X0253497Y0204649D02*
X0252746Y0203898D01*
X0252746Y0202397D01*
X0253497Y0201646D01*
X0252746Y0200045D02*
X0255749Y0200045D01*
X0257250Y0198543D01*
X0255749Y0197042D01*
X0252746Y0197042D01*
X0253497Y0195441D02*
X0252746Y0194690D01*
X0252746Y0193189D01*
X0253497Y0192438D01*
X0254247Y0192438D01*
X0254998Y0193189D01*
X0254998Y0194690D01*
X0255749Y0195441D01*
X0256499Y0195441D01*
X0257250Y0194690D01*
X0257250Y0193189D01*
X0256499Y0192438D01*
X0256499Y0201646D02*
X0257250Y0202397D01*
X0257250Y0203898D01*
X0256499Y0204649D01*
X0255749Y0204649D01*
X0254998Y0203898D01*
X0254998Y0203147D01*
X0254998Y0203898D02*
X0254247Y0204649D01*
X0253497Y0204649D01*
X0239250Y0202149D02*
X0239250Y0199146D01*
X0239250Y0200647D02*
X0234746Y0200647D01*
X0236247Y0199146D01*
X0199063Y0187254D02*
X0199063Y0182750D01*
X0197562Y0182750D02*
X0200564Y0182750D01*
X0197562Y0185753D02*
X0199063Y0187254D01*
X0195960Y0186503D02*
X0195210Y0187254D01*
X0192958Y0187254D01*
X0192958Y0182750D01*
X0195210Y0182750D01*
X0195960Y0183501D01*
X0195960Y0186503D01*
X0191356Y0187254D02*
X0188354Y0187254D01*
X0188354Y0182750D01*
X0191356Y0182750D01*
X0189855Y0185002D02*
X0188354Y0185002D01*
X0186753Y0182750D02*
X0183750Y0182750D01*
X0183750Y0187254D01*
X0183750Y0157254D02*
X0183750Y0152750D01*
X0186753Y0152750D01*
X0188354Y0152750D02*
X0191356Y0152750D01*
X0192958Y0152750D02*
X0195210Y0152750D01*
X0195960Y0153501D01*
X0195960Y0156503D01*
X0195210Y0157254D01*
X0192958Y0157254D01*
X0192958Y0152750D01*
X0189855Y0155002D02*
X0188354Y0155002D01*
X0188354Y0157254D02*
X0188354Y0152750D01*
X0188354Y0157254D02*
X0191356Y0157254D01*
X0197562Y0156503D02*
X0198312Y0157254D01*
X0199814Y0157254D01*
X0200564Y0156503D01*
X0200564Y0155753D01*
X0197562Y0152750D01*
X0200564Y0152750D01*
X0199814Y0122254D02*
X0200564Y0121503D01*
X0200564Y0120753D01*
X0199814Y0120002D01*
X0200564Y0119251D01*
X0200564Y0118501D01*
X0199814Y0117750D01*
X0198312Y0117750D01*
X0197562Y0118501D01*
X0195960Y0118501D02*
X0195960Y0121503D01*
X0195210Y0122254D01*
X0192958Y0122254D01*
X0192958Y0117750D01*
X0195210Y0117750D01*
X0195960Y0118501D01*
X0197562Y0121503D02*
X0198312Y0122254D01*
X0199814Y0122254D01*
X0199814Y0120002D02*
X0199063Y0120002D01*
X0191356Y0122254D02*
X0188354Y0122254D01*
X0188354Y0117750D01*
X0191356Y0117750D01*
X0189855Y0120002D02*
X0188354Y0120002D01*
X0186753Y0117750D02*
X0183750Y0117750D01*
X0183750Y0122254D01*
X0252746Y0152149D02*
X0253497Y0150647D01*
X0254998Y0149146D01*
X0254998Y0151398D01*
X0255749Y0152149D01*
X0256499Y0152149D01*
X0257250Y0151398D01*
X0257250Y0149897D01*
X0256499Y0149146D01*
X0254998Y0149146D01*
X0067250Y0117253D02*
X0067250Y0114250D01*
X0067250Y0115751D02*
X0062746Y0115751D01*
X0064247Y0114250D01*
X0049250Y0113502D02*
X0049250Y0112001D01*
X0048499Y0111250D01*
X0046998Y0112001D02*
X0046998Y0113502D01*
X0047749Y0114253D01*
X0048499Y0114253D01*
X0049250Y0113502D01*
X0046998Y0112001D02*
X0046247Y0111250D01*
X0045497Y0111250D01*
X0044746Y0112001D01*
X0044746Y0113502D01*
X0045497Y0114253D01*
X0044746Y0115854D02*
X0047749Y0115854D01*
X0049250Y0117355D01*
X0047749Y0118856D01*
X0044746Y0118856D01*
X0045497Y0120458D02*
X0044746Y0121208D01*
X0044746Y0122710D01*
X0045497Y0123460D01*
X0046247Y0123460D01*
X0049250Y0120458D01*
X0049250Y0123460D01*
X0048499Y0183750D02*
X0047749Y0183750D01*
X0046998Y0184501D01*
X0046998Y0186002D01*
X0047749Y0186753D01*
X0048499Y0186753D01*
X0049250Y0186002D01*
X0049250Y0184501D01*
X0048499Y0183750D01*
X0046998Y0184501D02*
X0046247Y0183750D01*
X0045497Y0183750D01*
X0044746Y0184501D01*
X0044746Y0186002D01*
X0045497Y0186753D01*
X0046247Y0186753D01*
X0046998Y0186002D01*
D12*
X0081800Y0201000D03*
X0081800Y0211000D03*
X0081800Y0221000D03*
X0081800Y0231000D03*
X0081800Y0241000D03*
X0081800Y0251000D03*
X0110200Y0251000D03*
X0110200Y0241000D03*
X0110200Y0231000D03*
X0110200Y0221000D03*
X0110200Y0211000D03*
X0110200Y0201000D03*
D13*
X0136000Y0173000D02*
X0136192Y0173002D01*
X0136384Y0173009D01*
X0136576Y0173021D01*
X0136768Y0173037D01*
X0136959Y0173058D01*
X0137149Y0173083D01*
X0137339Y0173113D01*
X0137528Y0173147D01*
X0137716Y0173186D01*
X0137903Y0173230D01*
X0138089Y0173278D01*
X0138274Y0173330D01*
X0138458Y0173387D01*
X0138640Y0173448D01*
X0138820Y0173514D01*
X0138999Y0173584D01*
X0139177Y0173658D01*
X0139352Y0173736D01*
X0139526Y0173819D01*
X0139697Y0173906D01*
X0139866Y0173996D01*
X0140033Y0174091D01*
X0140198Y0174190D01*
X0140361Y0174293D01*
X0140520Y0174400D01*
X0140678Y0174510D01*
X0140832Y0174624D01*
X0140984Y0174742D01*
X0141133Y0174864D01*
X0141279Y0174989D01*
X0141421Y0175117D01*
X0141561Y0175249D01*
X0141698Y0175384D01*
X0141831Y0175523D01*
X0141961Y0175664D01*
X0142087Y0175809D01*
X0142210Y0175957D01*
X0142329Y0176107D01*
X0142445Y0176261D01*
X0142557Y0176417D01*
X0142665Y0176576D01*
X0142770Y0176737D01*
X0142870Y0176901D01*
X0142966Y0177067D01*
X0143059Y0177235D01*
X0142946Y0184969D02*
X0142847Y0185138D01*
X0142743Y0185304D01*
X0142636Y0185468D01*
X0142525Y0185629D01*
X0142410Y0185787D01*
X0142291Y0185942D01*
X0142168Y0186095D01*
X0142042Y0186244D01*
X0141912Y0186390D01*
X0141778Y0186533D01*
X0141641Y0186673D01*
X0141501Y0186809D01*
X0141357Y0186942D01*
X0141210Y0187071D01*
X0141060Y0187197D01*
X0140907Y0187318D01*
X0140751Y0187437D01*
X0140592Y0187551D01*
X0140431Y0187661D01*
X0140266Y0187767D01*
X0140100Y0187870D01*
X0139930Y0187968D01*
X0139759Y0188062D01*
X0139585Y0188152D01*
X0139409Y0188237D01*
X0139231Y0188319D01*
X0139051Y0188395D01*
X0138869Y0188468D01*
X0138686Y0188536D01*
X0138501Y0188599D01*
X0138314Y0188658D01*
X0138126Y0188712D01*
X0137937Y0188762D01*
X0137747Y0188807D01*
X0137555Y0188847D01*
X0137363Y0188883D01*
X0137170Y0188914D01*
X0136976Y0188940D01*
X0136781Y0188962D01*
X0136586Y0188978D01*
X0136391Y0188990D01*
X0136195Y0188998D01*
X0136000Y0189000D01*
X0135807Y0188998D01*
X0135614Y0188991D01*
X0135422Y0188979D01*
X0135229Y0188963D01*
X0135037Y0188942D01*
X0134846Y0188916D01*
X0134656Y0188886D01*
X0134466Y0188851D01*
X0134277Y0188812D01*
X0134089Y0188768D01*
X0133902Y0188720D01*
X0133716Y0188667D01*
X0133532Y0188610D01*
X0133349Y0188548D01*
X0133168Y0188482D01*
X0132988Y0188411D01*
X0132810Y0188337D01*
X0132634Y0188258D01*
X0132460Y0188174D01*
X0132288Y0188087D01*
X0132118Y0187995D01*
X0131951Y0187899D01*
X0131785Y0187800D01*
X0131622Y0187696D01*
X0131462Y0187589D01*
X0131305Y0187477D01*
X0131150Y0187362D01*
X0130998Y0187243D01*
X0130849Y0187121D01*
X0130702Y0186995D01*
X0130559Y0186865D01*
X0130419Y0186732D01*
X0130283Y0186596D01*
X0130149Y0186456D01*
X0130020Y0186314D01*
X0129893Y0186168D01*
X0129854Y0175878D02*
X0129981Y0175730D01*
X0130111Y0175585D01*
X0130244Y0175444D01*
X0130381Y0175305D01*
X0130521Y0175170D01*
X0130665Y0175039D01*
X0130812Y0174911D01*
X0130961Y0174786D01*
X0131114Y0174665D01*
X0131269Y0174548D01*
X0131428Y0174435D01*
X0131589Y0174326D01*
X0131753Y0174221D01*
X0131919Y0174119D01*
X0132088Y0174022D01*
X0132258Y0173929D01*
X0132432Y0173840D01*
X0132607Y0173755D01*
X0132784Y0173675D01*
X0132963Y0173599D01*
X0133144Y0173527D01*
X0133327Y0173460D01*
X0133511Y0173397D01*
X0133697Y0173339D01*
X0133884Y0173285D01*
X0134072Y0173236D01*
X0134262Y0173191D01*
X0134452Y0173151D01*
X0134644Y0173116D01*
X0134836Y0173085D01*
X0135029Y0173059D01*
X0135223Y0173038D01*
X0135417Y0173021D01*
X0135611Y0173009D01*
X0135805Y0173002D01*
X0136000Y0173000D01*
X0143059Y0147235D02*
X0142966Y0147067D01*
X0142870Y0146901D01*
X0142770Y0146737D01*
X0142665Y0146576D01*
X0142557Y0146417D01*
X0142445Y0146261D01*
X0142329Y0146107D01*
X0142210Y0145957D01*
X0142087Y0145809D01*
X0141961Y0145664D01*
X0141831Y0145523D01*
X0141698Y0145384D01*
X0141561Y0145249D01*
X0141421Y0145117D01*
X0141279Y0144989D01*
X0141133Y0144864D01*
X0140984Y0144742D01*
X0140832Y0144624D01*
X0140678Y0144510D01*
X0140520Y0144400D01*
X0140361Y0144293D01*
X0140198Y0144190D01*
X0140033Y0144091D01*
X0139866Y0143996D01*
X0139697Y0143906D01*
X0139526Y0143819D01*
X0139352Y0143736D01*
X0139177Y0143658D01*
X0138999Y0143584D01*
X0138820Y0143514D01*
X0138640Y0143448D01*
X0138458Y0143387D01*
X0138274Y0143330D01*
X0138089Y0143278D01*
X0137903Y0143230D01*
X0137716Y0143186D01*
X0137528Y0143147D01*
X0137339Y0143113D01*
X0137149Y0143083D01*
X0136959Y0143058D01*
X0136768Y0143037D01*
X0136576Y0143021D01*
X0136384Y0143009D01*
X0136192Y0143002D01*
X0136000Y0143000D01*
X0142946Y0154969D02*
X0142847Y0155138D01*
X0142743Y0155304D01*
X0142636Y0155468D01*
X0142525Y0155629D01*
X0142410Y0155787D01*
X0142291Y0155942D01*
X0142168Y0156095D01*
X0142042Y0156244D01*
X0141912Y0156390D01*
X0141778Y0156533D01*
X0141641Y0156673D01*
X0141501Y0156809D01*
X0141357Y0156942D01*
X0141210Y0157071D01*
X0141060Y0157197D01*
X0140907Y0157318D01*
X0140751Y0157437D01*
X0140592Y0157551D01*
X0140431Y0157661D01*
X0140266Y0157767D01*
X0140100Y0157870D01*
X0139930Y0157968D01*
X0139759Y0158062D01*
X0139585Y0158152D01*
X0139409Y0158237D01*
X0139231Y0158319D01*
X0139051Y0158395D01*
X0138869Y0158468D01*
X0138686Y0158536D01*
X0138501Y0158599D01*
X0138314Y0158658D01*
X0138126Y0158712D01*
X0137937Y0158762D01*
X0137747Y0158807D01*
X0137555Y0158847D01*
X0137363Y0158883D01*
X0137170Y0158914D01*
X0136976Y0158940D01*
X0136781Y0158962D01*
X0136586Y0158978D01*
X0136391Y0158990D01*
X0136195Y0158998D01*
X0136000Y0159000D01*
X0135807Y0158998D01*
X0135614Y0158991D01*
X0135422Y0158979D01*
X0135229Y0158963D01*
X0135037Y0158942D01*
X0134846Y0158916D01*
X0134656Y0158886D01*
X0134466Y0158851D01*
X0134277Y0158812D01*
X0134089Y0158768D01*
X0133902Y0158720D01*
X0133716Y0158667D01*
X0133532Y0158610D01*
X0133349Y0158548D01*
X0133168Y0158482D01*
X0132988Y0158411D01*
X0132810Y0158337D01*
X0132634Y0158258D01*
X0132460Y0158174D01*
X0132288Y0158087D01*
X0132118Y0157995D01*
X0131951Y0157899D01*
X0131785Y0157800D01*
X0131622Y0157696D01*
X0131462Y0157589D01*
X0131305Y0157477D01*
X0131150Y0157362D01*
X0130998Y0157243D01*
X0130849Y0157121D01*
X0130702Y0156995D01*
X0130559Y0156865D01*
X0130419Y0156732D01*
X0130283Y0156596D01*
X0130149Y0156456D01*
X0130020Y0156314D01*
X0129893Y0156168D01*
X0129854Y0145878D02*
X0129981Y0145730D01*
X0130111Y0145585D01*
X0130244Y0145444D01*
X0130381Y0145305D01*
X0130521Y0145170D01*
X0130665Y0145039D01*
X0130812Y0144911D01*
X0130961Y0144786D01*
X0131114Y0144665D01*
X0131269Y0144548D01*
X0131428Y0144435D01*
X0131589Y0144326D01*
X0131753Y0144221D01*
X0131919Y0144119D01*
X0132088Y0144022D01*
X0132258Y0143929D01*
X0132432Y0143840D01*
X0132607Y0143755D01*
X0132784Y0143675D01*
X0132963Y0143599D01*
X0133144Y0143527D01*
X0133327Y0143460D01*
X0133511Y0143397D01*
X0133697Y0143339D01*
X0133884Y0143285D01*
X0134072Y0143236D01*
X0134262Y0143191D01*
X0134452Y0143151D01*
X0134644Y0143116D01*
X0134836Y0143085D01*
X0135029Y0143059D01*
X0135223Y0143038D01*
X0135417Y0143021D01*
X0135611Y0143009D01*
X0135805Y0143002D01*
X0136000Y0143000D01*
X0169054Y0147031D02*
X0169153Y0146862D01*
X0169257Y0146696D01*
X0169364Y0146532D01*
X0169475Y0146371D01*
X0169590Y0146213D01*
X0169709Y0146058D01*
X0169832Y0145905D01*
X0169958Y0145756D01*
X0170088Y0145610D01*
X0170222Y0145467D01*
X0170359Y0145327D01*
X0170499Y0145191D01*
X0170643Y0145058D01*
X0170790Y0144929D01*
X0170940Y0144803D01*
X0171093Y0144682D01*
X0171249Y0144563D01*
X0171408Y0144449D01*
X0171569Y0144339D01*
X0171734Y0144233D01*
X0171900Y0144130D01*
X0172070Y0144032D01*
X0172241Y0143938D01*
X0172415Y0143848D01*
X0172591Y0143763D01*
X0172769Y0143681D01*
X0172949Y0143605D01*
X0173131Y0143532D01*
X0173314Y0143464D01*
X0173499Y0143401D01*
X0173686Y0143342D01*
X0173874Y0143288D01*
X0174063Y0143238D01*
X0174253Y0143193D01*
X0174445Y0143153D01*
X0174637Y0143117D01*
X0174830Y0143086D01*
X0175024Y0143060D01*
X0175219Y0143038D01*
X0175414Y0143022D01*
X0175609Y0143010D01*
X0175805Y0143002D01*
X0176000Y0143000D01*
X0168941Y0154765D02*
X0169034Y0154933D01*
X0169130Y0155099D01*
X0169230Y0155263D01*
X0169335Y0155424D01*
X0169443Y0155583D01*
X0169555Y0155739D01*
X0169671Y0155893D01*
X0169790Y0156043D01*
X0169913Y0156191D01*
X0170039Y0156336D01*
X0170169Y0156477D01*
X0170302Y0156616D01*
X0170439Y0156751D01*
X0170579Y0156883D01*
X0170721Y0157011D01*
X0170867Y0157136D01*
X0171016Y0157258D01*
X0171168Y0157376D01*
X0171322Y0157490D01*
X0171480Y0157600D01*
X0171639Y0157707D01*
X0171802Y0157810D01*
X0171967Y0157909D01*
X0172134Y0158004D01*
X0172303Y0158094D01*
X0172474Y0158181D01*
X0172648Y0158264D01*
X0172823Y0158342D01*
X0173001Y0158416D01*
X0173180Y0158486D01*
X0173360Y0158552D01*
X0173542Y0158613D01*
X0173726Y0158670D01*
X0173911Y0158722D01*
X0174097Y0158770D01*
X0174284Y0158814D01*
X0174472Y0158853D01*
X0174661Y0158887D01*
X0174851Y0158917D01*
X0175041Y0158942D01*
X0175232Y0158963D01*
X0175424Y0158979D01*
X0175616Y0158991D01*
X0175808Y0158998D01*
X0176000Y0159000D01*
X0182107Y0145832D02*
X0181980Y0145686D01*
X0181851Y0145544D01*
X0181717Y0145404D01*
X0181581Y0145268D01*
X0181441Y0145135D01*
X0181298Y0145005D01*
X0181151Y0144879D01*
X0181002Y0144757D01*
X0180850Y0144638D01*
X0180695Y0144523D01*
X0180538Y0144411D01*
X0180378Y0144304D01*
X0180215Y0144200D01*
X0180049Y0144101D01*
X0179882Y0144005D01*
X0179712Y0143913D01*
X0179540Y0143826D01*
X0179366Y0143742D01*
X0179190Y0143663D01*
X0179012Y0143589D01*
X0178832Y0143518D01*
X0178651Y0143452D01*
X0178468Y0143390D01*
X0178284Y0143333D01*
X0178098Y0143280D01*
X0177911Y0143232D01*
X0177723Y0143188D01*
X0177534Y0143149D01*
X0177344Y0143114D01*
X0177154Y0143084D01*
X0176963Y0143058D01*
X0176771Y0143037D01*
X0176578Y0143021D01*
X0176386Y0143009D01*
X0176193Y0143002D01*
X0176000Y0143000D01*
X0182146Y0156122D02*
X0182019Y0156270D01*
X0181889Y0156415D01*
X0181756Y0156556D01*
X0181619Y0156695D01*
X0181479Y0156830D01*
X0181335Y0156961D01*
X0181188Y0157089D01*
X0181039Y0157214D01*
X0180886Y0157335D01*
X0180731Y0157452D01*
X0180572Y0157565D01*
X0180411Y0157674D01*
X0180247Y0157779D01*
X0180081Y0157881D01*
X0179912Y0157978D01*
X0179742Y0158071D01*
X0179568Y0158160D01*
X0179393Y0158245D01*
X0179216Y0158325D01*
X0179037Y0158401D01*
X0178856Y0158473D01*
X0178673Y0158540D01*
X0178489Y0158603D01*
X0178303Y0158661D01*
X0178116Y0158715D01*
X0177928Y0158764D01*
X0177738Y0158809D01*
X0177548Y0158849D01*
X0177356Y0158884D01*
X0177164Y0158915D01*
X0176971Y0158941D01*
X0176777Y0158962D01*
X0176583Y0158979D01*
X0176389Y0158991D01*
X0176195Y0158998D01*
X0176000Y0159000D01*
X0168941Y0184765D02*
X0169034Y0184933D01*
X0169130Y0185099D01*
X0169230Y0185263D01*
X0169335Y0185424D01*
X0169443Y0185583D01*
X0169555Y0185739D01*
X0169671Y0185893D01*
X0169790Y0186043D01*
X0169913Y0186191D01*
X0170039Y0186336D01*
X0170169Y0186477D01*
X0170302Y0186616D01*
X0170439Y0186751D01*
X0170579Y0186883D01*
X0170721Y0187011D01*
X0170867Y0187136D01*
X0171016Y0187258D01*
X0171168Y0187376D01*
X0171322Y0187490D01*
X0171480Y0187600D01*
X0171639Y0187707D01*
X0171802Y0187810D01*
X0171967Y0187909D01*
X0172134Y0188004D01*
X0172303Y0188094D01*
X0172474Y0188181D01*
X0172648Y0188264D01*
X0172823Y0188342D01*
X0173001Y0188416D01*
X0173180Y0188486D01*
X0173360Y0188552D01*
X0173542Y0188613D01*
X0173726Y0188670D01*
X0173911Y0188722D01*
X0174097Y0188770D01*
X0174284Y0188814D01*
X0174472Y0188853D01*
X0174661Y0188887D01*
X0174851Y0188917D01*
X0175041Y0188942D01*
X0175232Y0188963D01*
X0175424Y0188979D01*
X0175616Y0188991D01*
X0175808Y0188998D01*
X0176000Y0189000D01*
X0169054Y0177031D02*
X0169153Y0176862D01*
X0169257Y0176696D01*
X0169364Y0176532D01*
X0169475Y0176371D01*
X0169590Y0176213D01*
X0169709Y0176058D01*
X0169832Y0175905D01*
X0169958Y0175756D01*
X0170088Y0175610D01*
X0170222Y0175467D01*
X0170359Y0175327D01*
X0170499Y0175191D01*
X0170643Y0175058D01*
X0170790Y0174929D01*
X0170940Y0174803D01*
X0171093Y0174682D01*
X0171249Y0174563D01*
X0171408Y0174449D01*
X0171569Y0174339D01*
X0171734Y0174233D01*
X0171900Y0174130D01*
X0172070Y0174032D01*
X0172241Y0173938D01*
X0172415Y0173848D01*
X0172591Y0173763D01*
X0172769Y0173681D01*
X0172949Y0173605D01*
X0173131Y0173532D01*
X0173314Y0173464D01*
X0173499Y0173401D01*
X0173686Y0173342D01*
X0173874Y0173288D01*
X0174063Y0173238D01*
X0174253Y0173193D01*
X0174445Y0173153D01*
X0174637Y0173117D01*
X0174830Y0173086D01*
X0175024Y0173060D01*
X0175219Y0173038D01*
X0175414Y0173022D01*
X0175609Y0173010D01*
X0175805Y0173002D01*
X0176000Y0173000D01*
X0176193Y0173002D01*
X0176386Y0173009D01*
X0176578Y0173021D01*
X0176771Y0173037D01*
X0176963Y0173058D01*
X0177154Y0173084D01*
X0177344Y0173114D01*
X0177534Y0173149D01*
X0177723Y0173188D01*
X0177911Y0173232D01*
X0178098Y0173280D01*
X0178284Y0173333D01*
X0178468Y0173390D01*
X0178651Y0173452D01*
X0178832Y0173518D01*
X0179012Y0173589D01*
X0179190Y0173663D01*
X0179366Y0173742D01*
X0179540Y0173826D01*
X0179712Y0173913D01*
X0179882Y0174005D01*
X0180049Y0174101D01*
X0180215Y0174200D01*
X0180378Y0174304D01*
X0180538Y0174411D01*
X0180695Y0174523D01*
X0180850Y0174638D01*
X0181002Y0174757D01*
X0181151Y0174879D01*
X0181298Y0175005D01*
X0181441Y0175135D01*
X0181581Y0175268D01*
X0181717Y0175404D01*
X0181851Y0175544D01*
X0181980Y0175686D01*
X0182107Y0175832D01*
X0182146Y0186122D02*
X0182019Y0186270D01*
X0181889Y0186415D01*
X0181756Y0186556D01*
X0181619Y0186695D01*
X0181479Y0186830D01*
X0181335Y0186961D01*
X0181188Y0187089D01*
X0181039Y0187214D01*
X0180886Y0187335D01*
X0180731Y0187452D01*
X0180572Y0187565D01*
X0180411Y0187674D01*
X0180247Y0187779D01*
X0180081Y0187881D01*
X0179912Y0187978D01*
X0179742Y0188071D01*
X0179568Y0188160D01*
X0179393Y0188245D01*
X0179216Y0188325D01*
X0179037Y0188401D01*
X0178856Y0188473D01*
X0178673Y0188540D01*
X0178489Y0188603D01*
X0178303Y0188661D01*
X0178116Y0188715D01*
X0177928Y0188764D01*
X0177738Y0188809D01*
X0177548Y0188849D01*
X0177356Y0188884D01*
X0177164Y0188915D01*
X0176971Y0188941D01*
X0176777Y0188962D01*
X0176583Y0188979D01*
X0176389Y0188991D01*
X0176195Y0188998D01*
X0176000Y0189000D01*
X0169054Y0112031D02*
X0169153Y0111862D01*
X0169257Y0111696D01*
X0169364Y0111532D01*
X0169475Y0111371D01*
X0169590Y0111213D01*
X0169709Y0111058D01*
X0169832Y0110905D01*
X0169958Y0110756D01*
X0170088Y0110610D01*
X0170222Y0110467D01*
X0170359Y0110327D01*
X0170499Y0110191D01*
X0170643Y0110058D01*
X0170790Y0109929D01*
X0170940Y0109803D01*
X0171093Y0109682D01*
X0171249Y0109563D01*
X0171408Y0109449D01*
X0171569Y0109339D01*
X0171734Y0109233D01*
X0171900Y0109130D01*
X0172070Y0109032D01*
X0172241Y0108938D01*
X0172415Y0108848D01*
X0172591Y0108763D01*
X0172769Y0108681D01*
X0172949Y0108605D01*
X0173131Y0108532D01*
X0173314Y0108464D01*
X0173499Y0108401D01*
X0173686Y0108342D01*
X0173874Y0108288D01*
X0174063Y0108238D01*
X0174253Y0108193D01*
X0174445Y0108153D01*
X0174637Y0108117D01*
X0174830Y0108086D01*
X0175024Y0108060D01*
X0175219Y0108038D01*
X0175414Y0108022D01*
X0175609Y0108010D01*
X0175805Y0108002D01*
X0176000Y0108000D01*
X0168941Y0119765D02*
X0169034Y0119933D01*
X0169130Y0120099D01*
X0169230Y0120263D01*
X0169335Y0120424D01*
X0169443Y0120583D01*
X0169555Y0120739D01*
X0169671Y0120893D01*
X0169790Y0121043D01*
X0169913Y0121191D01*
X0170039Y0121336D01*
X0170169Y0121477D01*
X0170302Y0121616D01*
X0170439Y0121751D01*
X0170579Y0121883D01*
X0170721Y0122011D01*
X0170867Y0122136D01*
X0171016Y0122258D01*
X0171168Y0122376D01*
X0171322Y0122490D01*
X0171480Y0122600D01*
X0171639Y0122707D01*
X0171802Y0122810D01*
X0171967Y0122909D01*
X0172134Y0123004D01*
X0172303Y0123094D01*
X0172474Y0123181D01*
X0172648Y0123264D01*
X0172823Y0123342D01*
X0173001Y0123416D01*
X0173180Y0123486D01*
X0173360Y0123552D01*
X0173542Y0123613D01*
X0173726Y0123670D01*
X0173911Y0123722D01*
X0174097Y0123770D01*
X0174284Y0123814D01*
X0174472Y0123853D01*
X0174661Y0123887D01*
X0174851Y0123917D01*
X0175041Y0123942D01*
X0175232Y0123963D01*
X0175424Y0123979D01*
X0175616Y0123991D01*
X0175808Y0123998D01*
X0176000Y0124000D01*
X0182107Y0110832D02*
X0181980Y0110686D01*
X0181851Y0110544D01*
X0181717Y0110404D01*
X0181581Y0110268D01*
X0181441Y0110135D01*
X0181298Y0110005D01*
X0181151Y0109879D01*
X0181002Y0109757D01*
X0180850Y0109638D01*
X0180695Y0109523D01*
X0180538Y0109411D01*
X0180378Y0109304D01*
X0180215Y0109200D01*
X0180049Y0109101D01*
X0179882Y0109005D01*
X0179712Y0108913D01*
X0179540Y0108826D01*
X0179366Y0108742D01*
X0179190Y0108663D01*
X0179012Y0108589D01*
X0178832Y0108518D01*
X0178651Y0108452D01*
X0178468Y0108390D01*
X0178284Y0108333D01*
X0178098Y0108280D01*
X0177911Y0108232D01*
X0177723Y0108188D01*
X0177534Y0108149D01*
X0177344Y0108114D01*
X0177154Y0108084D01*
X0176963Y0108058D01*
X0176771Y0108037D01*
X0176578Y0108021D01*
X0176386Y0108009D01*
X0176193Y0108002D01*
X0176000Y0108000D01*
X0182146Y0121122D02*
X0182019Y0121270D01*
X0181889Y0121415D01*
X0181756Y0121556D01*
X0181619Y0121695D01*
X0181479Y0121830D01*
X0181335Y0121961D01*
X0181188Y0122089D01*
X0181039Y0122214D01*
X0180886Y0122335D01*
X0180731Y0122452D01*
X0180572Y0122565D01*
X0180411Y0122674D01*
X0180247Y0122779D01*
X0180081Y0122881D01*
X0179912Y0122978D01*
X0179742Y0123071D01*
X0179568Y0123160D01*
X0179393Y0123245D01*
X0179216Y0123325D01*
X0179037Y0123401D01*
X0178856Y0123473D01*
X0178673Y0123540D01*
X0178489Y0123603D01*
X0178303Y0123661D01*
X0178116Y0123715D01*
X0177928Y0123764D01*
X0177738Y0123809D01*
X0177548Y0123849D01*
X0177356Y0123884D01*
X0177164Y0123915D01*
X0176971Y0123941D01*
X0176777Y0123962D01*
X0176583Y0123979D01*
X0176389Y0123991D01*
X0176195Y0123998D01*
X0176000Y0124000D01*
X0142946Y0119969D02*
X0142847Y0120138D01*
X0142743Y0120304D01*
X0142636Y0120468D01*
X0142525Y0120629D01*
X0142410Y0120787D01*
X0142291Y0120942D01*
X0142168Y0121095D01*
X0142042Y0121244D01*
X0141912Y0121390D01*
X0141778Y0121533D01*
X0141641Y0121673D01*
X0141501Y0121809D01*
X0141357Y0121942D01*
X0141210Y0122071D01*
X0141060Y0122197D01*
X0140907Y0122318D01*
X0140751Y0122437D01*
X0140592Y0122551D01*
X0140431Y0122661D01*
X0140266Y0122767D01*
X0140100Y0122870D01*
X0139930Y0122968D01*
X0139759Y0123062D01*
X0139585Y0123152D01*
X0139409Y0123237D01*
X0139231Y0123319D01*
X0139051Y0123395D01*
X0138869Y0123468D01*
X0138686Y0123536D01*
X0138501Y0123599D01*
X0138314Y0123658D01*
X0138126Y0123712D01*
X0137937Y0123762D01*
X0137747Y0123807D01*
X0137555Y0123847D01*
X0137363Y0123883D01*
X0137170Y0123914D01*
X0136976Y0123940D01*
X0136781Y0123962D01*
X0136586Y0123978D01*
X0136391Y0123990D01*
X0136195Y0123998D01*
X0136000Y0124000D01*
X0143059Y0112235D02*
X0142966Y0112067D01*
X0142870Y0111901D01*
X0142770Y0111737D01*
X0142665Y0111576D01*
X0142557Y0111417D01*
X0142445Y0111261D01*
X0142329Y0111107D01*
X0142210Y0110957D01*
X0142087Y0110809D01*
X0141961Y0110664D01*
X0141831Y0110523D01*
X0141698Y0110384D01*
X0141561Y0110249D01*
X0141421Y0110117D01*
X0141279Y0109989D01*
X0141133Y0109864D01*
X0140984Y0109742D01*
X0140832Y0109624D01*
X0140678Y0109510D01*
X0140520Y0109400D01*
X0140361Y0109293D01*
X0140198Y0109190D01*
X0140033Y0109091D01*
X0139866Y0108996D01*
X0139697Y0108906D01*
X0139526Y0108819D01*
X0139352Y0108736D01*
X0139177Y0108658D01*
X0138999Y0108584D01*
X0138820Y0108514D01*
X0138640Y0108448D01*
X0138458Y0108387D01*
X0138274Y0108330D01*
X0138089Y0108278D01*
X0137903Y0108230D01*
X0137716Y0108186D01*
X0137528Y0108147D01*
X0137339Y0108113D01*
X0137149Y0108083D01*
X0136959Y0108058D01*
X0136768Y0108037D01*
X0136576Y0108021D01*
X0136384Y0108009D01*
X0136192Y0108002D01*
X0136000Y0108000D01*
X0129893Y0121168D02*
X0130020Y0121314D01*
X0130149Y0121456D01*
X0130283Y0121596D01*
X0130419Y0121732D01*
X0130559Y0121865D01*
X0130702Y0121995D01*
X0130849Y0122121D01*
X0130998Y0122243D01*
X0131150Y0122362D01*
X0131305Y0122477D01*
X0131462Y0122589D01*
X0131622Y0122696D01*
X0131785Y0122800D01*
X0131951Y0122899D01*
X0132118Y0122995D01*
X0132288Y0123087D01*
X0132460Y0123174D01*
X0132634Y0123258D01*
X0132810Y0123337D01*
X0132988Y0123411D01*
X0133168Y0123482D01*
X0133349Y0123548D01*
X0133532Y0123610D01*
X0133716Y0123667D01*
X0133902Y0123720D01*
X0134089Y0123768D01*
X0134277Y0123812D01*
X0134466Y0123851D01*
X0134656Y0123886D01*
X0134846Y0123916D01*
X0135037Y0123942D01*
X0135229Y0123963D01*
X0135422Y0123979D01*
X0135614Y0123991D01*
X0135807Y0123998D01*
X0136000Y0124000D01*
X0129854Y0110878D02*
X0129981Y0110730D01*
X0130111Y0110585D01*
X0130244Y0110444D01*
X0130381Y0110305D01*
X0130521Y0110170D01*
X0130665Y0110039D01*
X0130812Y0109911D01*
X0130961Y0109786D01*
X0131114Y0109665D01*
X0131269Y0109548D01*
X0131428Y0109435D01*
X0131589Y0109326D01*
X0131753Y0109221D01*
X0131919Y0109119D01*
X0132088Y0109022D01*
X0132258Y0108929D01*
X0132432Y0108840D01*
X0132607Y0108755D01*
X0132784Y0108675D01*
X0132963Y0108599D01*
X0133144Y0108527D01*
X0133327Y0108460D01*
X0133511Y0108397D01*
X0133697Y0108339D01*
X0133884Y0108285D01*
X0134072Y0108236D01*
X0134262Y0108191D01*
X0134452Y0108151D01*
X0134644Y0108116D01*
X0134836Y0108085D01*
X0135029Y0108059D01*
X0135223Y0108038D01*
X0135417Y0108021D01*
X0135611Y0108009D01*
X0135805Y0108002D01*
X0136000Y0108000D01*
D14*
X0144500Y0294500D02*
X0144500Y0307500D01*
X0157500Y0307500D01*
X0157500Y0294500D01*
X0144500Y0294500D01*
X0148000Y0301000D02*
X0148002Y0301109D01*
X0148008Y0301218D01*
X0148018Y0301326D01*
X0148032Y0301434D01*
X0148049Y0301542D01*
X0148071Y0301649D01*
X0148096Y0301755D01*
X0148126Y0301859D01*
X0148159Y0301963D01*
X0148196Y0302066D01*
X0148236Y0302167D01*
X0148280Y0302266D01*
X0148328Y0302364D01*
X0148380Y0302461D01*
X0148434Y0302555D01*
X0148492Y0302647D01*
X0148554Y0302737D01*
X0148619Y0302824D01*
X0148686Y0302910D01*
X0148757Y0302993D01*
X0148831Y0303073D01*
X0148908Y0303150D01*
X0148987Y0303225D01*
X0149069Y0303296D01*
X0149154Y0303365D01*
X0149241Y0303430D01*
X0149330Y0303493D01*
X0149422Y0303551D01*
X0149516Y0303607D01*
X0149611Y0303659D01*
X0149709Y0303708D01*
X0149808Y0303753D01*
X0149909Y0303795D01*
X0150011Y0303832D01*
X0150114Y0303866D01*
X0150219Y0303897D01*
X0150325Y0303923D01*
X0150431Y0303946D01*
X0150539Y0303964D01*
X0150647Y0303979D01*
X0150755Y0303990D01*
X0150864Y0303997D01*
X0150973Y0304000D01*
X0151082Y0303999D01*
X0151191Y0303994D01*
X0151299Y0303985D01*
X0151407Y0303972D01*
X0151515Y0303955D01*
X0151622Y0303935D01*
X0151728Y0303910D01*
X0151833Y0303882D01*
X0151937Y0303850D01*
X0152040Y0303814D01*
X0152142Y0303774D01*
X0152242Y0303731D01*
X0152340Y0303684D01*
X0152437Y0303634D01*
X0152531Y0303580D01*
X0152624Y0303522D01*
X0152715Y0303462D01*
X0152803Y0303398D01*
X0152889Y0303331D01*
X0152972Y0303261D01*
X0153053Y0303188D01*
X0153131Y0303112D01*
X0153206Y0303033D01*
X0153279Y0302951D01*
X0153348Y0302867D01*
X0153414Y0302781D01*
X0153477Y0302692D01*
X0153537Y0302601D01*
X0153594Y0302508D01*
X0153647Y0302413D01*
X0153696Y0302316D01*
X0153742Y0302217D01*
X0153784Y0302117D01*
X0153823Y0302015D01*
X0153858Y0301911D01*
X0153889Y0301807D01*
X0153917Y0301702D01*
X0153940Y0301595D01*
X0153960Y0301488D01*
X0153976Y0301380D01*
X0153988Y0301272D01*
X0153996Y0301163D01*
X0154000Y0301054D01*
X0154000Y0300946D01*
X0153996Y0300837D01*
X0153988Y0300728D01*
X0153976Y0300620D01*
X0153960Y0300512D01*
X0153940Y0300405D01*
X0153917Y0300298D01*
X0153889Y0300193D01*
X0153858Y0300089D01*
X0153823Y0299985D01*
X0153784Y0299883D01*
X0153742Y0299783D01*
X0153696Y0299684D01*
X0153647Y0299587D01*
X0153594Y0299492D01*
X0153537Y0299399D01*
X0153477Y0299308D01*
X0153414Y0299219D01*
X0153348Y0299133D01*
X0153279Y0299049D01*
X0153206Y0298967D01*
X0153131Y0298888D01*
X0153053Y0298812D01*
X0152972Y0298739D01*
X0152889Y0298669D01*
X0152803Y0298602D01*
X0152715Y0298538D01*
X0152624Y0298478D01*
X0152531Y0298420D01*
X0152437Y0298366D01*
X0152340Y0298316D01*
X0152242Y0298269D01*
X0152142Y0298226D01*
X0152040Y0298186D01*
X0151937Y0298150D01*
X0151833Y0298118D01*
X0151728Y0298090D01*
X0151622Y0298065D01*
X0151515Y0298045D01*
X0151407Y0298028D01*
X0151299Y0298015D01*
X0151191Y0298006D01*
X0151082Y0298001D01*
X0150973Y0298000D01*
X0150864Y0298003D01*
X0150755Y0298010D01*
X0150647Y0298021D01*
X0150539Y0298036D01*
X0150431Y0298054D01*
X0150325Y0298077D01*
X0150219Y0298103D01*
X0150114Y0298134D01*
X0150011Y0298168D01*
X0149909Y0298205D01*
X0149808Y0298247D01*
X0149709Y0298292D01*
X0149611Y0298341D01*
X0149516Y0298393D01*
X0149422Y0298449D01*
X0149330Y0298507D01*
X0149241Y0298570D01*
X0149154Y0298635D01*
X0149069Y0298704D01*
X0148987Y0298775D01*
X0148908Y0298850D01*
X0148831Y0298927D01*
X0148757Y0299007D01*
X0148686Y0299090D01*
X0148619Y0299176D01*
X0148554Y0299263D01*
X0148492Y0299353D01*
X0148434Y0299445D01*
X0148380Y0299539D01*
X0148328Y0299636D01*
X0148280Y0299734D01*
X0148236Y0299833D01*
X0148196Y0299934D01*
X0148159Y0300037D01*
X0148126Y0300141D01*
X0148096Y0300245D01*
X0148071Y0300351D01*
X0148049Y0300458D01*
X0148032Y0300566D01*
X0148018Y0300674D01*
X0148008Y0300782D01*
X0148002Y0300891D01*
X0148000Y0301000D01*
X0147000Y0301000D02*
X0147002Y0301126D01*
X0147008Y0301252D01*
X0147018Y0301378D01*
X0147032Y0301504D01*
X0147050Y0301629D01*
X0147072Y0301753D01*
X0147097Y0301877D01*
X0147127Y0302000D01*
X0147160Y0302121D01*
X0147198Y0302242D01*
X0147239Y0302361D01*
X0147284Y0302480D01*
X0147332Y0302596D01*
X0147384Y0302711D01*
X0147440Y0302824D01*
X0147500Y0302936D01*
X0147563Y0303045D01*
X0147629Y0303153D01*
X0147698Y0303258D01*
X0147771Y0303361D01*
X0147848Y0303462D01*
X0147927Y0303560D01*
X0148009Y0303656D01*
X0148095Y0303749D01*
X0148183Y0303840D01*
X0148274Y0303927D01*
X0148368Y0304012D01*
X0148464Y0304093D01*
X0148563Y0304172D01*
X0148664Y0304247D01*
X0148768Y0304319D01*
X0148874Y0304388D01*
X0148982Y0304454D01*
X0149092Y0304516D01*
X0149204Y0304574D01*
X0149317Y0304629D01*
X0149433Y0304680D01*
X0149550Y0304728D01*
X0149668Y0304772D01*
X0149788Y0304812D01*
X0149909Y0304848D01*
X0150031Y0304881D01*
X0150154Y0304910D01*
X0150278Y0304934D01*
X0150402Y0304955D01*
X0150527Y0304972D01*
X0150653Y0304985D01*
X0150779Y0304994D01*
X0150905Y0304999D01*
X0151032Y0305000D01*
X0151158Y0304997D01*
X0151284Y0304990D01*
X0151410Y0304979D01*
X0151535Y0304964D01*
X0151660Y0304945D01*
X0151784Y0304922D01*
X0151908Y0304896D01*
X0152030Y0304865D01*
X0152152Y0304831D01*
X0152272Y0304792D01*
X0152391Y0304750D01*
X0152509Y0304705D01*
X0152625Y0304655D01*
X0152740Y0304602D01*
X0152852Y0304545D01*
X0152963Y0304485D01*
X0153072Y0304421D01*
X0153179Y0304354D01*
X0153284Y0304284D01*
X0153387Y0304210D01*
X0153487Y0304133D01*
X0153585Y0304053D01*
X0153680Y0303970D01*
X0153772Y0303884D01*
X0153862Y0303795D01*
X0153949Y0303703D01*
X0154032Y0303609D01*
X0154113Y0303512D01*
X0154191Y0303412D01*
X0154266Y0303310D01*
X0154337Y0303206D01*
X0154405Y0303099D01*
X0154469Y0302991D01*
X0154530Y0302880D01*
X0154588Y0302768D01*
X0154642Y0302654D01*
X0154692Y0302538D01*
X0154739Y0302421D01*
X0154782Y0302302D01*
X0154821Y0302182D01*
X0154857Y0302061D01*
X0154888Y0301938D01*
X0154916Y0301815D01*
X0154940Y0301691D01*
X0154960Y0301566D01*
X0154976Y0301441D01*
X0154988Y0301315D01*
X0154996Y0301189D01*
X0155000Y0301063D01*
X0155000Y0300937D01*
X0154996Y0300811D01*
X0154988Y0300685D01*
X0154976Y0300559D01*
X0154960Y0300434D01*
X0154940Y0300309D01*
X0154916Y0300185D01*
X0154888Y0300062D01*
X0154857Y0299939D01*
X0154821Y0299818D01*
X0154782Y0299698D01*
X0154739Y0299579D01*
X0154692Y0299462D01*
X0154642Y0299346D01*
X0154588Y0299232D01*
X0154530Y0299120D01*
X0154469Y0299009D01*
X0154405Y0298901D01*
X0154337Y0298794D01*
X0154266Y0298690D01*
X0154191Y0298588D01*
X0154113Y0298488D01*
X0154032Y0298391D01*
X0153949Y0298297D01*
X0153862Y0298205D01*
X0153772Y0298116D01*
X0153680Y0298030D01*
X0153585Y0297947D01*
X0153487Y0297867D01*
X0153387Y0297790D01*
X0153284Y0297716D01*
X0153179Y0297646D01*
X0153072Y0297579D01*
X0152963Y0297515D01*
X0152852Y0297455D01*
X0152740Y0297398D01*
X0152625Y0297345D01*
X0152509Y0297295D01*
X0152391Y0297250D01*
X0152272Y0297208D01*
X0152152Y0297169D01*
X0152030Y0297135D01*
X0151908Y0297104D01*
X0151784Y0297078D01*
X0151660Y0297055D01*
X0151535Y0297036D01*
X0151410Y0297021D01*
X0151284Y0297010D01*
X0151158Y0297003D01*
X0151032Y0297000D01*
X0150905Y0297001D01*
X0150779Y0297006D01*
X0150653Y0297015D01*
X0150527Y0297028D01*
X0150402Y0297045D01*
X0150278Y0297066D01*
X0150154Y0297090D01*
X0150031Y0297119D01*
X0149909Y0297152D01*
X0149788Y0297188D01*
X0149668Y0297228D01*
X0149550Y0297272D01*
X0149433Y0297320D01*
X0149317Y0297371D01*
X0149204Y0297426D01*
X0149092Y0297484D01*
X0148982Y0297546D01*
X0148874Y0297612D01*
X0148768Y0297681D01*
X0148664Y0297753D01*
X0148563Y0297828D01*
X0148464Y0297907D01*
X0148368Y0297988D01*
X0148274Y0298073D01*
X0148183Y0298160D01*
X0148095Y0298251D01*
X0148009Y0298344D01*
X0147927Y0298440D01*
X0147848Y0298538D01*
X0147771Y0298639D01*
X0147698Y0298742D01*
X0147629Y0298847D01*
X0147563Y0298955D01*
X0147500Y0299064D01*
X0147440Y0299176D01*
X0147384Y0299289D01*
X0147332Y0299404D01*
X0147284Y0299520D01*
X0147239Y0299639D01*
X0147198Y0299758D01*
X0147160Y0299879D01*
X0147127Y0300000D01*
X0147097Y0300123D01*
X0147072Y0300247D01*
X0147050Y0300371D01*
X0147032Y0300496D01*
X0147018Y0300622D01*
X0147008Y0300748D01*
X0147002Y0300874D01*
X0147000Y0301000D01*
D15*
X0137750Y0277000D03*
X0164250Y0277000D03*
X0164250Y0325000D03*
X0137750Y0325000D03*
M02*
