%
M48
M72
T01C0.0236
T02C0.0320
T03C0.0400
T04C0.0470
T05C0.0710
%
T01
X4100Y16600
X6600Y20100
X6600Y21100
X6600Y22100
X6600Y23100
X6600Y24100
X6600Y25100
X23100Y20100
X23100Y20100
X23100Y17100
X23100Y17100
T02
X18100Y18100
X17100Y18100
X14100Y18100
X13100Y18100
X11600Y20100
X11600Y21100
X11600Y22100
X11600Y23100
X11600Y24100
X11600Y25100
X7600Y25100
X7600Y24100
X7600Y23100
X7600Y22100
X7600Y21100
X7600Y20100
X13100Y15100
X14100Y15100
X17100Y15100
X18100Y15100
X18100Y11600
X17100Y11600
X14100Y11600
X13100Y11600
T03
X5600Y11600
X5600Y12600
X5600Y13600
X5600Y14600
X5600Y15600
X5600Y16600
X5600Y17600
X5600Y18600
X5600Y20100
X5600Y21100
X5600Y22100
X5600Y23100
X5600Y24100
X5600Y25100
X5600Y26100
X5600Y27100
X24600Y27100
X24600Y26100
X24600Y25100
X24600Y24100
X24600Y23100
X24600Y22100
X24600Y20100
X24600Y19100
X24600Y18100
X24600Y17100
X24600Y16100
X24600Y15100
T04
X17560Y29120
X17560Y31080
X12640Y31080
X12640Y29120
T05
X15100Y28330
X15100Y31870
M30
