G75*
%MOIN*%
%OFA0B0*%
%FSLAX25Y25*%
%IPPOS*%
%LPD*%
%AMOC8*
5,1,8,0,0,1.08239X$1,22.5*
%
%ADD10R,0.25000X0.15000*%
%ADD11R,0.30000X0.20000*%
%ADD12R,0.25000X0.05000*%
%ADD13R,0.25000X0.25000*%
%ADD14R,0.20000X0.25000*%
%ADD15OC8,0.05200*%
%ADD16C,0.07050*%
%ADD17C,0.06000*%
%ADD18C,0.03200*%
%ADD19R,0.03962X0.03962*%
D10*
X0063500Y0293500D03*
D11*
X0096000Y0291000D03*
D12*
X0063500Y0283500D03*
D13*
X0203500Y0323500D03*
D14*
X0201000Y0293500D03*
D15*
X0116000Y0251000D03*
X0116000Y0241000D03*
X0116000Y0231000D03*
X0116000Y0221000D03*
X0116000Y0211000D03*
X0116000Y0201000D03*
X0131000Y0181000D03*
X0141000Y0181000D03*
X0171000Y0181000D03*
X0181000Y0181000D03*
X0181000Y0151000D03*
X0171000Y0151000D03*
X0141000Y0151000D03*
X0131000Y0151000D03*
X0131000Y0116000D03*
X0141000Y0116000D03*
X0171000Y0116000D03*
X0181000Y0116000D03*
X0076000Y0201000D03*
X0076000Y0211000D03*
X0076000Y0221000D03*
X0076000Y0231000D03*
X0076000Y0241000D03*
X0076000Y0251000D03*
D16*
X0122875Y0291200D02*
X0129925Y0291200D01*
X0129925Y0310800D02*
X0122875Y0310800D01*
X0172075Y0310800D02*
X0179125Y0310800D01*
X0179125Y0291200D02*
X0172075Y0291200D01*
D17*
X0243000Y0271000D02*
X0249000Y0271000D01*
X0249000Y0261000D02*
X0243000Y0261000D01*
X0243000Y0251000D02*
X0249000Y0251000D01*
X0249000Y0241000D02*
X0243000Y0241000D01*
X0243000Y0231000D02*
X0249000Y0231000D01*
X0249000Y0221000D02*
X0243000Y0221000D01*
X0243000Y0201000D02*
X0249000Y0201000D01*
X0249000Y0191000D02*
X0243000Y0191000D01*
X0243000Y0181000D02*
X0249000Y0181000D01*
X0249000Y0171000D02*
X0243000Y0171000D01*
X0243000Y0161000D02*
X0249000Y0161000D01*
X0249000Y0151000D02*
X0243000Y0151000D01*
X0059000Y0146000D02*
X0053000Y0146000D01*
X0053000Y0136000D02*
X0059000Y0136000D01*
X0059000Y0126000D02*
X0053000Y0126000D01*
X0053000Y0116000D02*
X0059000Y0116000D01*
X0059000Y0156000D02*
X0053000Y0156000D01*
X0053000Y0166000D02*
X0059000Y0166000D01*
X0059000Y0176000D02*
X0053000Y0176000D01*
X0053000Y0186000D02*
X0059000Y0186000D01*
X0059000Y0201000D02*
X0053000Y0201000D01*
X0053000Y0211000D02*
X0059000Y0211000D01*
X0059000Y0221000D02*
X0053000Y0221000D01*
X0053000Y0231000D02*
X0059000Y0231000D01*
X0059000Y0241000D02*
X0053000Y0241000D01*
X0053000Y0251000D02*
X0059000Y0251000D01*
X0059000Y0261000D02*
X0053000Y0261000D01*
X0053000Y0271000D02*
X0059000Y0271000D01*
D18*
X0021000Y0351000D02*
X0021000Y0086000D01*
X0266000Y0086000D01*
X0266000Y0351000D01*
X0021000Y0351000D01*
X0021000Y0349638D02*
X0266000Y0349638D01*
X0266000Y0346439D02*
X0021000Y0346439D01*
X0021000Y0343241D02*
X0266000Y0343241D01*
X0266000Y0340042D02*
X0021000Y0340042D01*
X0021000Y0336844D02*
X0187020Y0336844D01*
X0187000Y0336796D02*
X0187000Y0310204D01*
X0187609Y0308734D01*
X0187843Y0308500D01*
X0187609Y0308266D01*
X0187000Y0306796D01*
X0187000Y0280204D01*
X0187609Y0278734D01*
X0188734Y0277609D01*
X0190204Y0277000D01*
X0200400Y0277000D01*
X0200400Y0189886D01*
X0201253Y0187828D01*
X0222828Y0166253D01*
X0224886Y0165400D01*
X0227303Y0165400D01*
X0228223Y0165019D01*
X0233777Y0165019D01*
X0235247Y0165628D01*
X0236372Y0166753D01*
X0236777Y0167731D01*
X0237066Y0167035D01*
X0238101Y0166000D01*
X0237066Y0164965D01*
X0236000Y0162392D01*
X0236000Y0159608D01*
X0237066Y0157035D01*
X0238101Y0156000D01*
X0237066Y0154965D01*
X0236000Y0152392D01*
X0236000Y0149608D01*
X0237066Y0147035D01*
X0239035Y0145066D01*
X0241608Y0144000D01*
X0250392Y0144000D01*
X0252965Y0145066D01*
X0254934Y0147035D01*
X0256000Y0149608D01*
X0256000Y0152392D01*
X0254934Y0154965D01*
X0253899Y0156000D01*
X0254934Y0157035D01*
X0256000Y0159608D01*
X0256000Y0162392D01*
X0254934Y0164965D01*
X0253899Y0166000D01*
X0254934Y0167035D01*
X0256000Y0169608D01*
X0256000Y0172392D01*
X0254934Y0174965D01*
X0252965Y0176934D01*
X0252886Y0176967D01*
X0253271Y0177352D01*
X0253790Y0178065D01*
X0254190Y0178850D01*
X0254462Y0179689D01*
X0254600Y0180559D01*
X0254600Y0181000D01*
X0254600Y0181441D01*
X0254462Y0182311D01*
X0254190Y0183150D01*
X0253790Y0183935D01*
X0253271Y0184648D01*
X0252648Y0185271D01*
X0251935Y0185790D01*
X0251522Y0186000D01*
X0251935Y0186210D01*
X0252648Y0186729D01*
X0253271Y0187352D01*
X0253790Y0188065D01*
X0254190Y0188850D01*
X0254462Y0189689D01*
X0254600Y0190559D01*
X0254600Y0191000D01*
X0254600Y0191441D01*
X0254462Y0192311D01*
X0254190Y0193150D01*
X0253790Y0193935D01*
X0253271Y0194648D01*
X0252886Y0195033D01*
X0252965Y0195066D01*
X0254934Y0197035D01*
X0256000Y0199608D01*
X0256000Y0202392D01*
X0254934Y0204965D01*
X0252965Y0206934D01*
X0250392Y0208000D01*
X0241608Y0208000D01*
X0239035Y0206934D01*
X0237066Y0204965D01*
X0236777Y0204269D01*
X0236372Y0205247D01*
X0235247Y0206372D01*
X0233777Y0206981D01*
X0232938Y0206981D01*
X0221600Y0218320D01*
X0221600Y0307114D01*
X0220747Y0309172D01*
X0219917Y0310003D01*
X0220000Y0310204D01*
X0220000Y0336796D01*
X0219391Y0338266D01*
X0218266Y0339391D01*
X0216796Y0340000D01*
X0190204Y0340000D01*
X0188734Y0339391D01*
X0187609Y0338266D01*
X0187000Y0336796D01*
X0187000Y0333645D02*
X0021000Y0333645D01*
X0021000Y0330447D02*
X0187000Y0330447D01*
X0187000Y0327248D02*
X0154273Y0327248D01*
X0152820Y0327850D02*
X0149180Y0327850D01*
X0145817Y0326457D01*
X0143243Y0323883D01*
X0141850Y0320520D01*
X0141850Y0316880D01*
X0143243Y0313517D01*
X0145817Y0310943D01*
X0149180Y0309550D01*
X0152820Y0309550D01*
X0156183Y0310943D01*
X0158757Y0313517D01*
X0160150Y0316880D01*
X0160150Y0320520D01*
X0158757Y0323883D01*
X0156183Y0326457D01*
X0152820Y0327850D01*
X0147727Y0327248D02*
X0021000Y0327248D01*
X0021000Y0324050D02*
X0143410Y0324050D01*
X0141987Y0320851D02*
X0021000Y0320851D01*
X0021000Y0317653D02*
X0119755Y0317653D01*
X0118612Y0317179D02*
X0117833Y0316400D01*
X0054686Y0316400D01*
X0052628Y0315547D01*
X0032828Y0295747D01*
X0031253Y0294172D01*
X0030400Y0292114D01*
X0030400Y0169886D01*
X0031253Y0167828D01*
X0035019Y0164062D01*
X0035019Y0163223D01*
X0035628Y0161753D01*
X0036753Y0160628D01*
X0038223Y0160019D01*
X0043777Y0160019D01*
X0045247Y0160628D01*
X0046372Y0161753D01*
X0046777Y0162731D01*
X0047066Y0162035D01*
X0048101Y0161000D01*
X0047066Y0159965D01*
X0046000Y0157392D01*
X0046000Y0154608D01*
X0047066Y0152035D01*
X0048101Y0151000D01*
X0047066Y0149965D01*
X0046000Y0147392D01*
X0046000Y0144608D01*
X0047066Y0142035D01*
X0048101Y0141000D01*
X0047066Y0139965D01*
X0046000Y0137392D01*
X0046000Y0134608D01*
X0047066Y0132035D01*
X0048101Y0131000D01*
X0047066Y0129965D01*
X0046000Y0127392D01*
X0046000Y0124608D01*
X0047066Y0122035D01*
X0048101Y0121000D01*
X0047066Y0119965D01*
X0046000Y0117392D01*
X0046000Y0114608D01*
X0047066Y0112035D01*
X0049035Y0110066D01*
X0051608Y0109000D01*
X0060392Y0109000D01*
X0062965Y0110066D01*
X0064934Y0112035D01*
X0066000Y0114608D01*
X0066000Y0117392D01*
X0064934Y0119965D01*
X0063899Y0121000D01*
X0064934Y0122035D01*
X0066000Y0124608D01*
X0066000Y0127392D01*
X0064934Y0129965D01*
X0063899Y0131000D01*
X0064934Y0132035D01*
X0066000Y0134608D01*
X0066000Y0137392D01*
X0064934Y0139965D01*
X0063899Y0141000D01*
X0064934Y0142035D01*
X0066000Y0144608D01*
X0066000Y0147392D01*
X0064934Y0149965D01*
X0063899Y0151000D01*
X0064934Y0152035D01*
X0066000Y0154608D01*
X0066000Y0157392D01*
X0064934Y0159965D01*
X0063899Y0161000D01*
X0064934Y0162035D01*
X0066000Y0164608D01*
X0066000Y0167392D01*
X0064934Y0169965D01*
X0063899Y0171000D01*
X0064934Y0172035D01*
X0066000Y0174608D01*
X0066000Y0177392D01*
X0064934Y0179965D01*
X0063899Y0181000D01*
X0064934Y0182035D01*
X0066000Y0184608D01*
X0066000Y0187392D01*
X0064934Y0189965D01*
X0062965Y0191934D01*
X0060392Y0193000D01*
X0051608Y0193000D01*
X0049035Y0191934D01*
X0047066Y0189965D01*
X0046000Y0187392D01*
X0046000Y0184608D01*
X0047066Y0182035D01*
X0048101Y0181000D01*
X0047066Y0179965D01*
X0046000Y0177392D01*
X0046000Y0174608D01*
X0047066Y0172035D01*
X0048101Y0171000D01*
X0047066Y0169965D01*
X0046777Y0169269D01*
X0046372Y0170247D01*
X0045247Y0171372D01*
X0043777Y0171981D01*
X0042938Y0171981D01*
X0041600Y0173320D01*
X0041600Y0288680D01*
X0047000Y0294080D01*
X0047000Y0280204D01*
X0047609Y0278734D01*
X0048734Y0277609D01*
X0049699Y0277209D01*
X0049035Y0276934D01*
X0047066Y0274965D01*
X0046000Y0272392D01*
X0046000Y0269608D01*
X0047066Y0267035D01*
X0048101Y0266000D01*
X0047066Y0264965D01*
X0046000Y0262392D01*
X0046000Y0259608D01*
X0047066Y0257035D01*
X0048101Y0256000D01*
X0047066Y0254965D01*
X0046000Y0252392D01*
X0046000Y0249608D01*
X0047066Y0247035D01*
X0048101Y0246000D01*
X0047066Y0244965D01*
X0046000Y0242392D01*
X0046000Y0239608D01*
X0047066Y0237035D01*
X0048101Y0236000D01*
X0047066Y0234965D01*
X0046000Y0232392D01*
X0046000Y0229608D01*
X0047066Y0227035D01*
X0048101Y0226000D01*
X0047066Y0224965D01*
X0046000Y0222392D01*
X0046000Y0219608D01*
X0047066Y0217035D01*
X0048101Y0216000D01*
X0047066Y0214965D01*
X0046000Y0212392D01*
X0046000Y0209608D01*
X0047066Y0207035D01*
X0048101Y0206000D01*
X0047066Y0204965D01*
X0046000Y0202392D01*
X0046000Y0199608D01*
X0047066Y0197035D01*
X0049035Y0195066D01*
X0051608Y0194000D01*
X0060392Y0194000D01*
X0062965Y0195066D01*
X0063008Y0195108D01*
X0063223Y0195019D01*
X0068777Y0195019D01*
X0069697Y0195400D01*
X0072266Y0195400D01*
X0073266Y0194400D01*
X0078734Y0194400D01*
X0082600Y0198266D01*
X0082600Y0203734D01*
X0080334Y0206000D01*
X0082600Y0208266D01*
X0082600Y0213734D01*
X0080334Y0216000D01*
X0082600Y0218266D01*
X0082600Y0223734D01*
X0080334Y0226000D01*
X0082600Y0228266D01*
X0082600Y0233734D01*
X0080334Y0236000D01*
X0082600Y0238266D01*
X0082600Y0243734D01*
X0080334Y0246000D01*
X0082600Y0248266D01*
X0082600Y0253734D01*
X0078734Y0257600D01*
X0073266Y0257600D01*
X0072266Y0256600D01*
X0069697Y0256600D01*
X0068777Y0256981D01*
X0064901Y0256981D01*
X0084920Y0277000D01*
X0111796Y0277000D01*
X0113266Y0277609D01*
X0114391Y0278734D01*
X0115000Y0280204D01*
X0115000Y0301796D01*
X0114391Y0303266D01*
X0113266Y0304391D01*
X0111796Y0305000D01*
X0080204Y0305000D01*
X0078734Y0304391D01*
X0078500Y0304157D01*
X0078266Y0304391D01*
X0076796Y0305000D01*
X0057920Y0305000D01*
X0058120Y0305200D01*
X0117833Y0305200D01*
X0118612Y0304421D01*
X0121378Y0303275D01*
X0131422Y0303275D01*
X0134188Y0304421D01*
X0136304Y0306537D01*
X0137450Y0309303D01*
X0137450Y0312297D01*
X0136304Y0315063D01*
X0134188Y0317179D01*
X0131422Y0318325D01*
X0121378Y0318325D01*
X0118612Y0317179D01*
X0126400Y0310800D02*
X0055800Y0310800D01*
X0036000Y0291000D01*
X0036000Y0171000D01*
X0041000Y0166000D01*
X0034956Y0164124D02*
X0021000Y0164124D01*
X0021000Y0160926D02*
X0036455Y0160926D01*
X0031758Y0167323D02*
X0021000Y0167323D01*
X0021000Y0170521D02*
X0030400Y0170521D01*
X0030400Y0173720D02*
X0021000Y0173720D01*
X0021000Y0176918D02*
X0030400Y0176918D01*
X0030400Y0180117D02*
X0021000Y0180117D01*
X0021000Y0183315D02*
X0030400Y0183315D01*
X0030400Y0186514D02*
X0021000Y0186514D01*
X0021000Y0189712D02*
X0030400Y0189712D01*
X0030400Y0192911D02*
X0021000Y0192911D01*
X0021000Y0196109D02*
X0030400Y0196109D01*
X0030400Y0199308D02*
X0021000Y0199308D01*
X0021000Y0202506D02*
X0030400Y0202506D01*
X0030400Y0205705D02*
X0021000Y0205705D01*
X0021000Y0208903D02*
X0030400Y0208903D01*
X0030400Y0212102D02*
X0021000Y0212102D01*
X0021000Y0215300D02*
X0030400Y0215300D01*
X0030400Y0218499D02*
X0021000Y0218499D01*
X0021000Y0221697D02*
X0030400Y0221697D01*
X0030400Y0224896D02*
X0021000Y0224896D01*
X0021000Y0228094D02*
X0030400Y0228094D01*
X0030400Y0231293D02*
X0021000Y0231293D01*
X0021000Y0234491D02*
X0030400Y0234491D01*
X0030400Y0237690D02*
X0021000Y0237690D01*
X0021000Y0240888D02*
X0030400Y0240888D01*
X0030400Y0244087D02*
X0021000Y0244087D01*
X0021000Y0247285D02*
X0030400Y0247285D01*
X0030400Y0250484D02*
X0021000Y0250484D01*
X0021000Y0253682D02*
X0030400Y0253682D01*
X0030400Y0256881D02*
X0021000Y0256881D01*
X0021000Y0260079D02*
X0030400Y0260079D01*
X0030400Y0263278D02*
X0021000Y0263278D01*
X0021000Y0266476D02*
X0030400Y0266476D01*
X0030400Y0269675D02*
X0021000Y0269675D01*
X0021000Y0272873D02*
X0030400Y0272873D01*
X0030400Y0276072D02*
X0021000Y0276072D01*
X0021000Y0279270D02*
X0030400Y0279270D01*
X0030400Y0282469D02*
X0021000Y0282469D01*
X0021000Y0285668D02*
X0030400Y0285668D01*
X0030400Y0288866D02*
X0021000Y0288866D01*
X0021000Y0292065D02*
X0030400Y0292065D01*
X0032343Y0295263D02*
X0021000Y0295263D01*
X0021000Y0298462D02*
X0035542Y0298462D01*
X0038740Y0301660D02*
X0021000Y0301660D01*
X0021000Y0304859D02*
X0041939Y0304859D01*
X0045137Y0308057D02*
X0021000Y0308057D01*
X0021000Y0311256D02*
X0048336Y0311256D01*
X0051535Y0314454D02*
X0021000Y0314454D01*
X0044984Y0292065D02*
X0047000Y0292065D01*
X0047000Y0288866D02*
X0041786Y0288866D01*
X0041600Y0285668D02*
X0047000Y0285668D01*
X0047000Y0282469D02*
X0041600Y0282469D01*
X0041600Y0279270D02*
X0047387Y0279270D01*
X0048172Y0276072D02*
X0041600Y0276072D01*
X0041600Y0272873D02*
X0046199Y0272873D01*
X0046000Y0269675D02*
X0041600Y0269675D01*
X0041600Y0266476D02*
X0047624Y0266476D01*
X0046367Y0263278D02*
X0041600Y0263278D01*
X0041600Y0260079D02*
X0046000Y0260079D01*
X0047220Y0256881D02*
X0041600Y0256881D01*
X0041600Y0253682D02*
X0046534Y0253682D01*
X0046000Y0250484D02*
X0041600Y0250484D01*
X0041600Y0247285D02*
X0046962Y0247285D01*
X0046702Y0244087D02*
X0041600Y0244087D01*
X0041600Y0240888D02*
X0046000Y0240888D01*
X0046794Y0237690D02*
X0041600Y0237690D01*
X0041600Y0234491D02*
X0046869Y0234491D01*
X0046000Y0231293D02*
X0041600Y0231293D01*
X0041600Y0228094D02*
X0046627Y0228094D01*
X0047037Y0224896D02*
X0041600Y0224896D01*
X0041600Y0221697D02*
X0046000Y0221697D01*
X0046459Y0218499D02*
X0041600Y0218499D01*
X0041600Y0215300D02*
X0047401Y0215300D01*
X0046000Y0212102D02*
X0041600Y0212102D01*
X0041600Y0208903D02*
X0046292Y0208903D01*
X0047805Y0205705D02*
X0041600Y0205705D01*
X0041600Y0202506D02*
X0046047Y0202506D01*
X0046124Y0199308D02*
X0041600Y0199308D01*
X0041600Y0196109D02*
X0047991Y0196109D01*
X0051392Y0192911D02*
X0041600Y0192911D01*
X0041600Y0189712D02*
X0046961Y0189712D01*
X0046000Y0186514D02*
X0041600Y0186514D01*
X0041600Y0183315D02*
X0046535Y0183315D01*
X0047217Y0180117D02*
X0041600Y0180117D01*
X0041600Y0176918D02*
X0046000Y0176918D01*
X0046368Y0173720D02*
X0041600Y0173720D01*
X0046098Y0170521D02*
X0047622Y0170521D01*
X0048026Y0160926D02*
X0045545Y0160926D01*
X0046139Y0157727D02*
X0021000Y0157727D01*
X0021000Y0154529D02*
X0046033Y0154529D01*
X0047770Y0151330D02*
X0021000Y0151330D01*
X0021000Y0148132D02*
X0046306Y0148132D01*
X0046000Y0144933D02*
X0021000Y0144933D01*
X0021000Y0141734D02*
X0047366Y0141734D01*
X0046474Y0138536D02*
X0021000Y0138536D01*
X0021000Y0135337D02*
X0046000Y0135337D01*
X0047023Y0132139D02*
X0021000Y0132139D01*
X0021000Y0128940D02*
X0046641Y0128940D01*
X0046000Y0125742D02*
X0021000Y0125742D01*
X0021000Y0122543D02*
X0046855Y0122543D01*
X0046809Y0119345D02*
X0021000Y0119345D01*
X0021000Y0116146D02*
X0046000Y0116146D01*
X0046687Y0112948D02*
X0021000Y0112948D01*
X0021000Y0109749D02*
X0049798Y0109749D01*
X0062202Y0109749D02*
X0137917Y0109749D01*
X0138266Y0109400D02*
X0143734Y0109400D01*
X0147600Y0113266D01*
X0147600Y0114680D01*
X0156000Y0123080D01*
X0164400Y0114680D01*
X0164400Y0113266D01*
X0168266Y0109400D01*
X0173734Y0109400D01*
X0176990Y0112656D01*
X0178846Y0110800D01*
X0181000Y0110800D01*
X0183154Y0110800D01*
X0186200Y0113846D01*
X0186200Y0116000D01*
X0186200Y0118154D01*
X0183154Y0121200D01*
X0181000Y0121200D01*
X0181000Y0116000D01*
X0181000Y0116000D01*
X0186200Y0116000D01*
X0181000Y0116000D01*
X0181000Y0116000D01*
X0181000Y0121200D01*
X0178846Y0121200D01*
X0176990Y0119344D01*
X0173734Y0122600D01*
X0172320Y0122600D01*
X0164100Y0130820D01*
X0164100Y0149980D01*
X0164400Y0149680D01*
X0164400Y0148266D01*
X0168266Y0144400D01*
X0173734Y0144400D01*
X0176990Y0147656D01*
X0178846Y0145800D01*
X0181000Y0145800D01*
X0183154Y0145800D01*
X0186200Y0148846D01*
X0186200Y0151000D01*
X0186200Y0153154D01*
X0183154Y0156200D01*
X0181000Y0156200D01*
X0181000Y0151000D01*
X0181000Y0151000D01*
X0186200Y0151000D01*
X0181000Y0151000D01*
X0181000Y0151000D01*
X0181000Y0156200D01*
X0178846Y0156200D01*
X0176990Y0154344D01*
X0173734Y0157600D01*
X0172320Y0157600D01*
X0169100Y0160820D01*
X0169100Y0174400D01*
X0173734Y0174400D01*
X0176990Y0177656D01*
X0178846Y0175800D01*
X0181000Y0175800D01*
X0183154Y0175800D01*
X0186200Y0178846D01*
X0186200Y0181000D01*
X0186200Y0183154D01*
X0183154Y0186200D01*
X0181000Y0186200D01*
X0181000Y0181000D01*
X0186200Y0181000D01*
X0181000Y0181000D01*
X0181000Y0181000D01*
X0181000Y0181000D01*
X0181000Y0175800D01*
X0181000Y0181000D01*
X0181000Y0181000D01*
X0181000Y0186200D01*
X0178846Y0186200D01*
X0176990Y0184344D01*
X0176600Y0184734D01*
X0176600Y0242114D01*
X0175747Y0244172D01*
X0174172Y0245747D01*
X0164172Y0255747D01*
X0162114Y0256600D01*
X0119734Y0256600D01*
X0118734Y0257600D01*
X0113266Y0257600D01*
X0109400Y0253734D01*
X0109400Y0248266D01*
X0111666Y0246000D01*
X0109400Y0243734D01*
X0109400Y0238266D01*
X0111666Y0236000D01*
X0109400Y0233734D01*
X0109400Y0228266D01*
X0111666Y0226000D01*
X0109400Y0223734D01*
X0109400Y0218266D01*
X0111666Y0216000D01*
X0109400Y0213734D01*
X0109400Y0208266D01*
X0111666Y0206000D01*
X0109400Y0203734D01*
X0109400Y0198266D01*
X0113266Y0194400D01*
X0118734Y0194400D01*
X0119734Y0195400D01*
X0133680Y0195400D01*
X0135400Y0193680D01*
X0135400Y0184734D01*
X0135010Y0184344D01*
X0133154Y0186200D01*
X0131000Y0186200D01*
X0131000Y0181000D01*
X0131000Y0181000D01*
X0131000Y0175800D01*
X0133154Y0175800D01*
X0135010Y0177656D01*
X0138266Y0174400D01*
X0142900Y0174400D01*
X0142900Y0160820D01*
X0139680Y0157600D01*
X0138266Y0157600D01*
X0135010Y0154344D01*
X0133154Y0156200D01*
X0131000Y0156200D01*
X0131000Y0151000D01*
X0131000Y0151000D01*
X0131000Y0145800D01*
X0133154Y0145800D01*
X0135010Y0147656D01*
X0138266Y0144400D01*
X0143734Y0144400D01*
X0147600Y0148266D01*
X0147600Y0149680D01*
X0147900Y0149980D01*
X0147900Y0130820D01*
X0139680Y0122600D01*
X0138266Y0122600D01*
X0135010Y0119344D01*
X0133154Y0121200D01*
X0131000Y0121200D01*
X0131000Y0116000D01*
X0131000Y0116000D01*
X0131000Y0110800D01*
X0133154Y0110800D01*
X0135010Y0112656D01*
X0138266Y0109400D01*
X0144083Y0109749D02*
X0167917Y0109749D01*
X0164718Y0112948D02*
X0147282Y0112948D01*
X0149066Y0116146D02*
X0162934Y0116146D01*
X0159735Y0119345D02*
X0152264Y0119345D01*
X0155463Y0122543D02*
X0156537Y0122543D01*
X0158500Y0128500D02*
X0171000Y0116000D01*
X0176989Y0119345D02*
X0176991Y0119345D01*
X0181000Y0119345D02*
X0181000Y0119345D01*
X0181000Y0116146D02*
X0181000Y0116146D01*
X0181000Y0116000D02*
X0181000Y0110800D01*
X0181000Y0116000D01*
X0181000Y0116000D01*
X0181000Y0112948D02*
X0181000Y0112948D01*
X0185302Y0112948D02*
X0266000Y0112948D01*
X0266000Y0116146D02*
X0186200Y0116146D01*
X0185009Y0119345D02*
X0266000Y0119345D01*
X0266000Y0122543D02*
X0173790Y0122543D01*
X0169178Y0125742D02*
X0266000Y0125742D01*
X0266000Y0128940D02*
X0165979Y0128940D01*
X0164100Y0132139D02*
X0266000Y0132139D01*
X0266000Y0135337D02*
X0164100Y0135337D01*
X0164100Y0138536D02*
X0266000Y0138536D01*
X0266000Y0141734D02*
X0164100Y0141734D01*
X0164100Y0144933D02*
X0167733Y0144933D01*
X0164535Y0148132D02*
X0164100Y0148132D01*
X0171000Y0151000D02*
X0163500Y0158500D01*
X0163500Y0236000D01*
X0158500Y0241000D01*
X0116000Y0241000D01*
X0109400Y0240888D02*
X0082600Y0240888D01*
X0082247Y0244087D02*
X0109753Y0244087D01*
X0110381Y0247285D02*
X0081619Y0247285D01*
X0082600Y0250484D02*
X0109400Y0250484D01*
X0109400Y0253682D02*
X0082600Y0253682D01*
X0079453Y0256881D02*
X0112547Y0256881D01*
X0116000Y0251000D02*
X0161000Y0251000D01*
X0171000Y0241000D01*
X0171000Y0181000D01*
X0176252Y0176918D02*
X0177728Y0176918D01*
X0181000Y0176918D02*
X0181000Y0176918D01*
X0181000Y0180117D02*
X0181000Y0180117D01*
X0181000Y0183315D02*
X0181000Y0183315D01*
X0186039Y0183315D02*
X0205765Y0183315D01*
X0202567Y0186514D02*
X0176600Y0186514D01*
X0176600Y0189712D02*
X0200472Y0189712D01*
X0200400Y0192911D02*
X0176600Y0192911D01*
X0176600Y0196109D02*
X0200400Y0196109D01*
X0200400Y0199308D02*
X0176600Y0199308D01*
X0176600Y0202506D02*
X0200400Y0202506D01*
X0200400Y0205705D02*
X0176600Y0205705D01*
X0176600Y0208903D02*
X0200400Y0208903D01*
X0200400Y0212102D02*
X0176600Y0212102D01*
X0176600Y0215300D02*
X0200400Y0215300D01*
X0200400Y0218499D02*
X0176600Y0218499D01*
X0176600Y0221697D02*
X0200400Y0221697D01*
X0200400Y0224896D02*
X0176600Y0224896D01*
X0176600Y0228094D02*
X0200400Y0228094D01*
X0200400Y0231293D02*
X0176600Y0231293D01*
X0176600Y0234491D02*
X0200400Y0234491D01*
X0200400Y0237690D02*
X0176600Y0237690D01*
X0176600Y0240888D02*
X0200400Y0240888D01*
X0200400Y0244087D02*
X0175783Y0244087D01*
X0172634Y0247285D02*
X0200400Y0247285D01*
X0200400Y0250484D02*
X0169436Y0250484D01*
X0166237Y0253682D02*
X0200400Y0253682D01*
X0200400Y0256881D02*
X0119453Y0256881D01*
X0109976Y0237690D02*
X0082024Y0237690D01*
X0081842Y0234491D02*
X0110158Y0234491D01*
X0109400Y0231293D02*
X0082600Y0231293D01*
X0082428Y0228094D02*
X0109572Y0228094D01*
X0110562Y0224896D02*
X0081438Y0224896D01*
X0082600Y0221697D02*
X0109400Y0221697D01*
X0109400Y0218499D02*
X0082600Y0218499D01*
X0081034Y0215300D02*
X0110966Y0215300D01*
X0109400Y0212102D02*
X0082600Y0212102D01*
X0082600Y0208903D02*
X0109400Y0208903D01*
X0111371Y0205705D02*
X0080629Y0205705D01*
X0082600Y0202506D02*
X0109400Y0202506D01*
X0109400Y0199308D02*
X0082600Y0199308D01*
X0080443Y0196109D02*
X0111557Y0196109D01*
X0116000Y0201000D02*
X0136000Y0201000D01*
X0141000Y0196000D01*
X0141000Y0181000D01*
X0135748Y0176918D02*
X0134272Y0176918D01*
X0131000Y0176918D02*
X0131000Y0176918D01*
X0131000Y0175800D02*
X0131000Y0181000D01*
X0131000Y0181000D01*
X0131000Y0181000D01*
X0125800Y0181000D01*
X0125800Y0183154D01*
X0128846Y0186200D01*
X0131000Y0186200D01*
X0131000Y0181000D01*
X0125800Y0181000D01*
X0125800Y0178846D01*
X0128846Y0175800D01*
X0131000Y0175800D01*
X0127728Y0176918D02*
X0066000Y0176918D01*
X0065632Y0173720D02*
X0142900Y0173720D01*
X0142900Y0170521D02*
X0064378Y0170521D01*
X0066000Y0167323D02*
X0142900Y0167323D01*
X0142900Y0164124D02*
X0065800Y0164124D01*
X0063974Y0160926D02*
X0142900Y0160926D01*
X0139807Y0157727D02*
X0065861Y0157727D01*
X0065967Y0154529D02*
X0127175Y0154529D01*
X0125800Y0153154D02*
X0128846Y0156200D01*
X0131000Y0156200D01*
X0131000Y0151000D01*
X0131000Y0151000D01*
X0131000Y0151000D01*
X0125800Y0151000D01*
X0125800Y0153154D01*
X0125800Y0151330D02*
X0064230Y0151330D01*
X0065694Y0148132D02*
X0126515Y0148132D01*
X0125800Y0148846D02*
X0125800Y0151000D01*
X0131000Y0151000D01*
X0131000Y0145800D01*
X0128846Y0145800D01*
X0125800Y0148846D01*
X0131000Y0148132D02*
X0131000Y0148132D01*
X0131000Y0151330D02*
X0131000Y0151330D01*
X0131000Y0154529D02*
X0131000Y0154529D01*
X0134825Y0154529D02*
X0135195Y0154529D01*
X0141000Y0151000D02*
X0148500Y0158500D01*
X0148500Y0198500D01*
X0136000Y0211000D01*
X0116000Y0211000D01*
X0116000Y0221000D02*
X0141000Y0221000D01*
X0153500Y0208500D01*
X0153500Y0128500D01*
X0141000Y0116000D01*
X0135011Y0119345D02*
X0135009Y0119345D01*
X0131000Y0119345D02*
X0131000Y0119345D01*
X0131000Y0121200D02*
X0128846Y0121200D01*
X0125800Y0118154D01*
X0125800Y0116000D01*
X0131000Y0116000D01*
X0131000Y0116000D01*
X0131000Y0116000D01*
X0131000Y0121200D01*
X0126991Y0119345D02*
X0065191Y0119345D01*
X0065145Y0122543D02*
X0138210Y0122543D01*
X0142822Y0125742D02*
X0066000Y0125742D01*
X0065359Y0128940D02*
X0146021Y0128940D01*
X0147900Y0132139D02*
X0064977Y0132139D01*
X0066000Y0135337D02*
X0147900Y0135337D01*
X0147900Y0138536D02*
X0065526Y0138536D01*
X0064634Y0141734D02*
X0147900Y0141734D01*
X0147900Y0144933D02*
X0144267Y0144933D01*
X0147465Y0148132D02*
X0147900Y0148132D01*
X0137733Y0144933D02*
X0066000Y0144933D01*
X0066000Y0116146D02*
X0125800Y0116146D01*
X0125800Y0116000D02*
X0125800Y0113846D01*
X0128846Y0110800D01*
X0131000Y0110800D01*
X0131000Y0116000D01*
X0125800Y0116000D01*
X0126698Y0112948D02*
X0065312Y0112948D01*
X0021000Y0106551D02*
X0266000Y0106551D01*
X0266000Y0109749D02*
X0174083Y0109749D01*
X0158500Y0128500D02*
X0158500Y0223500D01*
X0151000Y0231000D01*
X0116000Y0231000D01*
X0076000Y0231000D02*
X0066000Y0231000D01*
X0066000Y0241000D02*
X0076000Y0241000D01*
X0076000Y0251000D02*
X0066000Y0251000D01*
X0069019Y0256881D02*
X0072547Y0256881D01*
X0067999Y0260079D02*
X0200400Y0260079D01*
X0200400Y0263278D02*
X0071198Y0263278D01*
X0074396Y0266476D02*
X0200400Y0266476D01*
X0200400Y0269675D02*
X0077595Y0269675D01*
X0080793Y0272873D02*
X0200400Y0272873D01*
X0200400Y0276072D02*
X0156712Y0276072D01*
X0156183Y0275543D02*
X0158757Y0278117D01*
X0160150Y0281480D01*
X0160150Y0285120D01*
X0158757Y0288483D01*
X0156183Y0291057D01*
X0152820Y0292450D01*
X0149180Y0292450D01*
X0145817Y0291057D01*
X0143243Y0288483D01*
X0141850Y0285120D01*
X0141850Y0281480D01*
X0143243Y0278117D01*
X0145817Y0275543D01*
X0149180Y0274150D01*
X0152820Y0274150D01*
X0156183Y0275543D01*
X0159235Y0279270D02*
X0187387Y0279270D01*
X0187000Y0282469D02*
X0160150Y0282469D01*
X0159923Y0285668D02*
X0169442Y0285668D01*
X0169724Y0285524D02*
X0170641Y0285226D01*
X0171593Y0285075D01*
X0175600Y0285075D01*
X0179607Y0285075D01*
X0180559Y0285226D01*
X0181476Y0285524D01*
X0182335Y0285961D01*
X0183115Y0286528D01*
X0183797Y0287210D01*
X0184364Y0287990D01*
X0184801Y0288849D01*
X0185099Y0289766D01*
X0185250Y0290718D01*
X0185250Y0291200D01*
X0185250Y0291682D01*
X0185099Y0292634D01*
X0184801Y0293551D01*
X0184364Y0294410D01*
X0183797Y0295190D01*
X0183115Y0295872D01*
X0182335Y0296439D01*
X0181476Y0296876D01*
X0180559Y0297174D01*
X0179607Y0297325D01*
X0175600Y0297325D01*
X0175600Y0291200D01*
X0175600Y0291200D01*
X0185250Y0291200D01*
X0175600Y0291200D01*
X0175600Y0291200D01*
X0175600Y0297325D01*
X0171593Y0297325D01*
X0170641Y0297174D01*
X0169724Y0296876D01*
X0168865Y0296439D01*
X0168085Y0295872D01*
X0167403Y0295190D01*
X0166836Y0294410D01*
X0166399Y0293551D01*
X0166101Y0292634D01*
X0165950Y0291682D01*
X0165950Y0291200D01*
X0175600Y0291200D01*
X0175600Y0285075D01*
X0175600Y0291200D01*
X0175600Y0291200D01*
X0175600Y0291200D01*
X0165950Y0291200D01*
X0165950Y0290718D01*
X0166101Y0289766D01*
X0166399Y0288849D01*
X0166836Y0287990D01*
X0167403Y0287210D01*
X0168085Y0286528D01*
X0168865Y0285961D01*
X0169724Y0285524D01*
X0166393Y0288866D02*
X0158374Y0288866D01*
X0153751Y0292065D02*
X0166011Y0292065D01*
X0167476Y0295263D02*
X0134524Y0295263D01*
X0134597Y0295190D02*
X0133915Y0295872D01*
X0133135Y0296439D01*
X0132276Y0296876D01*
X0131359Y0297174D01*
X0130407Y0297325D01*
X0126400Y0297325D01*
X0126400Y0291200D01*
X0126400Y0291200D01*
X0136050Y0291200D01*
X0136050Y0291682D01*
X0135899Y0292634D01*
X0135601Y0293551D01*
X0135164Y0294410D01*
X0134597Y0295190D01*
X0135989Y0292065D02*
X0148249Y0292065D01*
X0143626Y0288866D02*
X0135607Y0288866D01*
X0135601Y0288849D02*
X0135899Y0289766D01*
X0136050Y0290718D01*
X0136050Y0291200D01*
X0126400Y0291200D01*
X0126400Y0291200D01*
X0126400Y0297325D01*
X0122393Y0297325D01*
X0121441Y0297174D01*
X0120524Y0296876D01*
X0119665Y0296439D01*
X0118885Y0295872D01*
X0118203Y0295190D01*
X0117636Y0294410D01*
X0117199Y0293551D01*
X0116901Y0292634D01*
X0116750Y0291682D01*
X0116750Y0291200D01*
X0126400Y0291200D01*
X0126400Y0285075D01*
X0130407Y0285075D01*
X0131359Y0285226D01*
X0132276Y0285524D01*
X0133135Y0285961D01*
X0133915Y0286528D01*
X0134597Y0287210D01*
X0135164Y0287990D01*
X0135601Y0288849D01*
X0132558Y0285668D02*
X0142077Y0285668D01*
X0141850Y0282469D02*
X0115000Y0282469D01*
X0115000Y0285668D02*
X0120242Y0285668D01*
X0120524Y0285524D02*
X0121441Y0285226D01*
X0122393Y0285075D01*
X0126400Y0285075D01*
X0126400Y0291200D01*
X0126400Y0291200D01*
X0126400Y0291200D01*
X0116750Y0291200D01*
X0116750Y0290718D01*
X0116901Y0289766D01*
X0117199Y0288849D01*
X0117636Y0287990D01*
X0118203Y0287210D01*
X0118885Y0286528D01*
X0119665Y0285961D01*
X0120524Y0285524D01*
X0117193Y0288866D02*
X0115000Y0288866D01*
X0115000Y0292065D02*
X0116811Y0292065D01*
X0118276Y0295263D02*
X0115000Y0295263D01*
X0115000Y0298462D02*
X0187000Y0298462D01*
X0187000Y0301660D02*
X0115000Y0301660D01*
X0112137Y0304859D02*
X0118174Y0304859D01*
X0126400Y0295263D02*
X0126400Y0295263D01*
X0126400Y0292065D02*
X0126400Y0292065D01*
X0126400Y0288866D02*
X0126400Y0288866D01*
X0126400Y0285668D02*
X0126400Y0285668D01*
X0114613Y0279270D02*
X0142765Y0279270D01*
X0145288Y0276072D02*
X0083992Y0276072D01*
X0071000Y0281000D02*
X0071000Y0286000D01*
X0071000Y0281000D02*
X0061000Y0271000D01*
X0061000Y0261000D02*
X0086000Y0286000D01*
X0079863Y0304859D02*
X0077137Y0304859D01*
X0133045Y0317653D02*
X0141850Y0317653D01*
X0142855Y0314454D02*
X0136556Y0314454D01*
X0137450Y0311256D02*
X0145504Y0311256D01*
X0156496Y0311256D02*
X0164550Y0311256D01*
X0164550Y0312297D02*
X0164550Y0309303D01*
X0165696Y0306537D01*
X0167812Y0304421D01*
X0170578Y0303275D01*
X0180622Y0303275D01*
X0183388Y0304421D01*
X0185504Y0306537D01*
X0186650Y0309303D01*
X0186650Y0312297D01*
X0185504Y0315063D01*
X0183388Y0317179D01*
X0180622Y0318325D01*
X0170578Y0318325D01*
X0167812Y0317179D01*
X0165696Y0315063D01*
X0164550Y0312297D01*
X0165444Y0314454D02*
X0159145Y0314454D01*
X0160150Y0317653D02*
X0168955Y0317653D01*
X0160013Y0320851D02*
X0187000Y0320851D01*
X0187000Y0317653D02*
X0182245Y0317653D01*
X0185756Y0314454D02*
X0187000Y0314454D01*
X0187000Y0311256D02*
X0186650Y0311256D01*
X0186134Y0308057D02*
X0187523Y0308057D01*
X0187000Y0304859D02*
X0183826Y0304859D01*
X0183724Y0295263D02*
X0187000Y0295263D01*
X0187000Y0292065D02*
X0185189Y0292065D01*
X0184807Y0288866D02*
X0187000Y0288866D01*
X0187000Y0285668D02*
X0181758Y0285668D01*
X0175600Y0285668D02*
X0175600Y0285668D01*
X0175600Y0288866D02*
X0175600Y0288866D01*
X0175600Y0292065D02*
X0175600Y0292065D01*
X0175600Y0295263D02*
X0175600Y0295263D01*
X0167374Y0304859D02*
X0134626Y0304859D01*
X0136934Y0308057D02*
X0165066Y0308057D01*
X0158590Y0324050D02*
X0187000Y0324050D01*
X0206000Y0316000D02*
X0216000Y0306000D01*
X0216000Y0216000D01*
X0231000Y0201000D01*
X0225019Y0199062D02*
X0225019Y0198223D01*
X0225628Y0196753D01*
X0226753Y0195628D01*
X0228223Y0195019D01*
X0233777Y0195019D01*
X0235247Y0195628D01*
X0236372Y0196753D01*
X0236777Y0197731D01*
X0237066Y0197035D01*
X0239035Y0195066D01*
X0239114Y0195033D01*
X0238729Y0194648D01*
X0238210Y0193935D01*
X0237810Y0193150D01*
X0237538Y0192311D01*
X0237400Y0191441D01*
X0237400Y0191000D01*
X0246000Y0191000D01*
X0254600Y0191000D01*
X0246000Y0191000D01*
X0246000Y0191000D01*
X0246000Y0181000D01*
X0254600Y0181000D01*
X0246000Y0181000D01*
X0246000Y0181000D01*
X0246000Y0181000D01*
X0246000Y0186600D01*
X0246000Y0191000D01*
X0246000Y0191000D01*
X0246000Y0191000D01*
X0237400Y0191000D01*
X0237400Y0190559D01*
X0237538Y0189689D01*
X0237810Y0188850D01*
X0238210Y0188065D01*
X0238729Y0187352D01*
X0239352Y0186729D01*
X0240065Y0186210D01*
X0240478Y0186000D01*
X0240065Y0185790D01*
X0239352Y0185271D01*
X0238729Y0184648D01*
X0238210Y0183935D01*
X0237810Y0183150D01*
X0237538Y0182311D01*
X0237400Y0181441D01*
X0237400Y0181000D01*
X0246000Y0181000D01*
X0246000Y0181000D01*
X0237400Y0181000D01*
X0237400Y0180559D01*
X0237538Y0179689D01*
X0237810Y0178850D01*
X0238210Y0178065D01*
X0238729Y0177352D01*
X0239114Y0176967D01*
X0239035Y0176934D01*
X0237066Y0174965D01*
X0236777Y0174269D01*
X0236372Y0175247D01*
X0235247Y0176372D01*
X0233777Y0176981D01*
X0228223Y0176981D01*
X0228022Y0176898D01*
X0211600Y0193320D01*
X0211600Y0212480D01*
X0225019Y0199062D01*
X0224773Y0199308D02*
X0211600Y0199308D01*
X0211600Y0202506D02*
X0221574Y0202506D01*
X0218376Y0205705D02*
X0211600Y0205705D01*
X0211600Y0208903D02*
X0215177Y0208903D01*
X0211979Y0212102D02*
X0211600Y0212102D01*
X0221600Y0218499D02*
X0236459Y0218499D01*
X0236000Y0219608D02*
X0237066Y0217035D01*
X0239035Y0215066D01*
X0241608Y0214000D01*
X0250392Y0214000D01*
X0252965Y0215066D01*
X0254934Y0217035D01*
X0256000Y0219608D01*
X0256000Y0222392D01*
X0254934Y0224965D01*
X0253899Y0226000D01*
X0254934Y0227035D01*
X0256000Y0229608D01*
X0256000Y0232392D01*
X0254934Y0234965D01*
X0253899Y0236000D01*
X0254934Y0237035D01*
X0256000Y0239608D01*
X0256000Y0242392D01*
X0254934Y0244965D01*
X0253899Y0246000D01*
X0254934Y0247035D01*
X0256000Y0249608D01*
X0256000Y0252392D01*
X0254934Y0254965D01*
X0253899Y0256000D01*
X0254934Y0257035D01*
X0256000Y0259608D01*
X0256000Y0262392D01*
X0254934Y0264965D01*
X0253899Y0266000D01*
X0254934Y0267035D01*
X0256000Y0269608D01*
X0256000Y0272392D01*
X0254934Y0274965D01*
X0252965Y0276934D01*
X0250392Y0278000D01*
X0241608Y0278000D01*
X0239035Y0276934D01*
X0237066Y0274965D01*
X0236000Y0272392D01*
X0236000Y0269608D01*
X0237066Y0267035D01*
X0238101Y0266000D01*
X0237066Y0264965D01*
X0236000Y0262392D01*
X0236000Y0259608D01*
X0237066Y0257035D01*
X0238101Y0256000D01*
X0237066Y0254965D01*
X0236000Y0252392D01*
X0236000Y0249608D01*
X0237066Y0247035D01*
X0238101Y0246000D01*
X0237066Y0244965D01*
X0236000Y0242392D01*
X0236000Y0239608D01*
X0237066Y0237035D01*
X0238101Y0236000D01*
X0237066Y0234965D01*
X0236000Y0232392D01*
X0236000Y0229608D01*
X0237066Y0227035D01*
X0238101Y0226000D01*
X0237066Y0224965D01*
X0236000Y0222392D01*
X0236000Y0219608D01*
X0236000Y0221697D02*
X0221600Y0221697D01*
X0221600Y0224896D02*
X0237037Y0224896D01*
X0236627Y0228094D02*
X0221600Y0228094D01*
X0221600Y0231293D02*
X0236000Y0231293D01*
X0236869Y0234491D02*
X0221600Y0234491D01*
X0221600Y0237690D02*
X0236794Y0237690D01*
X0236000Y0240888D02*
X0221600Y0240888D01*
X0221600Y0244087D02*
X0236702Y0244087D01*
X0236962Y0247285D02*
X0221600Y0247285D01*
X0221600Y0250484D02*
X0236000Y0250484D01*
X0236534Y0253682D02*
X0221600Y0253682D01*
X0221600Y0256881D02*
X0237220Y0256881D01*
X0236000Y0260079D02*
X0221600Y0260079D01*
X0221600Y0263278D02*
X0236367Y0263278D01*
X0237624Y0266476D02*
X0221600Y0266476D01*
X0221600Y0269675D02*
X0236000Y0269675D01*
X0236199Y0272873D02*
X0221600Y0272873D01*
X0221600Y0276072D02*
X0238172Y0276072D01*
X0221600Y0279270D02*
X0266000Y0279270D01*
X0266000Y0276072D02*
X0253827Y0276072D01*
X0255801Y0272873D02*
X0266000Y0272873D01*
X0266000Y0269675D02*
X0256000Y0269675D01*
X0254376Y0266476D02*
X0266000Y0266476D01*
X0266000Y0263278D02*
X0255633Y0263278D01*
X0256000Y0260079D02*
X0266000Y0260079D01*
X0266000Y0256881D02*
X0254780Y0256881D01*
X0255466Y0253682D02*
X0266000Y0253682D01*
X0266000Y0250484D02*
X0256000Y0250484D01*
X0255038Y0247285D02*
X0266000Y0247285D01*
X0266000Y0244087D02*
X0255298Y0244087D01*
X0256000Y0240888D02*
X0266000Y0240888D01*
X0266000Y0237690D02*
X0255206Y0237690D01*
X0255131Y0234491D02*
X0266000Y0234491D01*
X0266000Y0231293D02*
X0256000Y0231293D01*
X0255373Y0228094D02*
X0266000Y0228094D01*
X0266000Y0224896D02*
X0254963Y0224896D01*
X0256000Y0221697D02*
X0266000Y0221697D01*
X0266000Y0218499D02*
X0255541Y0218499D01*
X0253200Y0215300D02*
X0266000Y0215300D01*
X0266000Y0212102D02*
X0227818Y0212102D01*
X0224619Y0215300D02*
X0238800Y0215300D01*
X0231016Y0208903D02*
X0266000Y0208903D01*
X0266000Y0205705D02*
X0254195Y0205705D01*
X0255953Y0202506D02*
X0266000Y0202506D01*
X0266000Y0199308D02*
X0255876Y0199308D01*
X0254009Y0196109D02*
X0266000Y0196109D01*
X0266000Y0192911D02*
X0254267Y0192911D01*
X0254466Y0189712D02*
X0266000Y0189712D01*
X0266000Y0186514D02*
X0252352Y0186514D01*
X0254105Y0183315D02*
X0266000Y0183315D01*
X0266000Y0180117D02*
X0254530Y0180117D01*
X0252981Y0176918D02*
X0266000Y0176918D01*
X0266000Y0173720D02*
X0255450Y0173720D01*
X0256000Y0170521D02*
X0266000Y0170521D01*
X0266000Y0167323D02*
X0255053Y0167323D01*
X0255283Y0164124D02*
X0266000Y0164124D01*
X0266000Y0160926D02*
X0256000Y0160926D01*
X0255221Y0157727D02*
X0266000Y0157727D01*
X0266000Y0154529D02*
X0255115Y0154529D01*
X0256000Y0151330D02*
X0266000Y0151330D01*
X0266000Y0148132D02*
X0255389Y0148132D01*
X0252645Y0144933D02*
X0266000Y0144933D01*
X0239355Y0144933D02*
X0174267Y0144933D01*
X0181000Y0145800D02*
X0181000Y0151000D01*
X0181000Y0145800D01*
X0181000Y0148132D02*
X0181000Y0148132D01*
X0181000Y0151000D02*
X0181000Y0151000D01*
X0181000Y0151330D02*
X0181000Y0151330D01*
X0181000Y0154529D02*
X0181000Y0154529D01*
X0184825Y0154529D02*
X0236885Y0154529D01*
X0236779Y0157727D02*
X0172193Y0157727D01*
X0169100Y0160926D02*
X0236000Y0160926D01*
X0236717Y0164124D02*
X0169100Y0164124D01*
X0169100Y0167323D02*
X0221758Y0167323D01*
X0218559Y0170521D02*
X0169100Y0170521D01*
X0169100Y0173720D02*
X0215361Y0173720D01*
X0212162Y0176918D02*
X0184272Y0176918D01*
X0186200Y0180117D02*
X0208964Y0180117D01*
X0206000Y0191000D02*
X0226000Y0171000D01*
X0231000Y0171000D01*
X0228071Y0176918D02*
X0228001Y0176918D01*
X0224803Y0180117D02*
X0237470Y0180117D01*
X0237895Y0183315D02*
X0221604Y0183315D01*
X0218406Y0186514D02*
X0239648Y0186514D01*
X0237534Y0189712D02*
X0215207Y0189712D01*
X0212009Y0192911D02*
X0237733Y0192911D01*
X0237991Y0196109D02*
X0235728Y0196109D01*
X0226272Y0196109D02*
X0211600Y0196109D01*
X0206000Y0191000D02*
X0206000Y0281000D01*
X0221600Y0282469D02*
X0266000Y0282469D01*
X0266000Y0285668D02*
X0221600Y0285668D01*
X0221600Y0288866D02*
X0266000Y0288866D01*
X0266000Y0292065D02*
X0221600Y0292065D01*
X0221600Y0295263D02*
X0266000Y0295263D01*
X0266000Y0298462D02*
X0221600Y0298462D01*
X0221600Y0301660D02*
X0266000Y0301660D01*
X0266000Y0304859D02*
X0221600Y0304859D01*
X0221209Y0308057D02*
X0266000Y0308057D01*
X0266000Y0311256D02*
X0220000Y0311256D01*
X0220000Y0314454D02*
X0266000Y0314454D01*
X0266000Y0317653D02*
X0220000Y0317653D01*
X0220000Y0320851D02*
X0266000Y0320851D01*
X0266000Y0324050D02*
X0220000Y0324050D01*
X0220000Y0327248D02*
X0266000Y0327248D01*
X0266000Y0330447D02*
X0220000Y0330447D01*
X0220000Y0333645D02*
X0266000Y0333645D01*
X0266000Y0336844D02*
X0219980Y0336844D01*
X0076000Y0221000D02*
X0066000Y0221000D01*
X0066000Y0211000D02*
X0076000Y0211000D01*
X0076000Y0201000D02*
X0066000Y0201000D01*
X0060608Y0192911D02*
X0135400Y0192911D01*
X0135400Y0189712D02*
X0065039Y0189712D01*
X0066000Y0186514D02*
X0135400Y0186514D01*
X0131000Y0183315D02*
X0131000Y0183315D01*
X0131000Y0180117D02*
X0131000Y0180117D01*
X0125800Y0180117D02*
X0064783Y0180117D01*
X0065465Y0183315D02*
X0125961Y0183315D01*
X0176805Y0154529D02*
X0177175Y0154529D01*
X0186200Y0151330D02*
X0236000Y0151330D01*
X0236611Y0148132D02*
X0185485Y0148132D01*
X0236608Y0167323D02*
X0236946Y0167323D01*
X0239019Y0176918D02*
X0233929Y0176918D01*
X0246000Y0183315D02*
X0246000Y0183315D01*
X0246000Y0186514D02*
X0246000Y0186514D01*
X0246000Y0189712D02*
X0246000Y0189712D01*
X0237805Y0205705D02*
X0235914Y0205705D01*
X0131000Y0116146D02*
X0131000Y0116146D01*
X0131000Y0112948D02*
X0131000Y0112948D01*
X0021000Y0103352D02*
X0266000Y0103352D01*
X0266000Y0100154D02*
X0021000Y0100154D01*
X0021000Y0096955D02*
X0266000Y0096955D01*
X0266000Y0093757D02*
X0021000Y0093757D01*
X0021000Y0090558D02*
X0266000Y0090558D01*
X0266000Y0087360D02*
X0021000Y0087360D01*
D19*
X0041000Y0166000D03*
X0066000Y0201000D03*
X0066000Y0211000D03*
X0066000Y0221000D03*
X0066000Y0231000D03*
X0066000Y0241000D03*
X0066000Y0251000D03*
X0231000Y0201000D03*
X0231000Y0201000D03*
X0231000Y0171000D03*
X0231000Y0171000D03*
M02*
